<mxfile host="app.diagrams.net" modified="2021-08-18T07:58:18.504Z" agent="5.0 (Windows NT 10.0; Win64; x64) AppleWebKit/537.36 (KHTML, like Gecko) Chrome/92.0.4515.131 Safari/537.36 Edg/92.0.902.73" etag="96-AB0LCyqF79uhnNp-Y" version="14.9.6" type="github">
  <diagram id="R2lEEEUBdFMjLlhIrx00" name="Page-1">
    <mxGraphModel dx="4544" dy="3744" grid="1" gridSize="10" guides="1" tooltips="1" connect="1" arrows="1" fold="1" page="1" pageScale="1" pageWidth="850" pageHeight="1100" math="0" shadow="0" extFonts="Permanent Marker^https://fonts.googleapis.com/css?family=Permanent+Marker">
      <root>
        <mxCell id="0" />
        <mxCell id="1" parent="0" />
        <mxCell id="88DA4RzG58VflkBBN9f2-1" value="customer" style="shape=table;startSize=40;container=1;collapsible=1;childLayout=tableLayout;fixedRows=1;rowLines=0;fontStyle=1;align=center;resizeLast=1;fillColor=#dae8fc;strokeColor=#6c8ebf;" vertex="1" parent="1">
          <mxGeometry x="-90" y="-590" width="246.47" height="190" as="geometry" />
        </mxCell>
        <mxCell id="88DA4RzG58VflkBBN9f2-2" value="" style="shape=partialRectangle;collapsible=0;dropTarget=0;pointerEvents=0;fillColor=#dae8fc;points=[[0,0.5],[1,0.5]];portConstraint=eastwest;top=0;left=0;right=0;bottom=1;strokeColor=#6c8ebf;" vertex="1" parent="88DA4RzG58VflkBBN9f2-1">
          <mxGeometry y="40" width="246.47" height="30" as="geometry" />
        </mxCell>
        <mxCell id="88DA4RzG58VflkBBN9f2-3" value="PK" style="shape=partialRectangle;overflow=hidden;connectable=0;fillColor=#dae8fc;top=0;left=0;bottom=0;right=0;fontStyle=1;strokeColor=#6c8ebf;" vertex="1" parent="88DA4RzG58VflkBBN9f2-2">
          <mxGeometry width="30" height="30" as="geometry" />
        </mxCell>
        <mxCell id="88DA4RzG58VflkBBN9f2-4" value="customerId String NOT NULL " style="shape=partialRectangle;overflow=hidden;connectable=0;fillColor=#dae8fc;top=0;left=0;bottom=0;right=0;align=left;spacingLeft=6;fontStyle=5;strokeColor=#6c8ebf;" vertex="1" parent="88DA4RzG58VflkBBN9f2-2">
          <mxGeometry x="30" width="216.47" height="30" as="geometry" />
        </mxCell>
        <mxCell id="88DA4RzG58VflkBBN9f2-5" value="" style="shape=partialRectangle;collapsible=0;dropTarget=0;pointerEvents=0;fillColor=#dae8fc;points=[[0,0.5],[1,0.5]];portConstraint=eastwest;top=0;left=0;right=0;bottom=0;strokeColor=#6c8ebf;" vertex="1" parent="88DA4RzG58VflkBBN9f2-1">
          <mxGeometry y="70" width="246.47" height="30" as="geometry" />
        </mxCell>
        <mxCell id="88DA4RzG58VflkBBN9f2-6" value="" style="shape=partialRectangle;overflow=hidden;connectable=0;fillColor=#dae8fc;top=0;left=0;bottom=0;right=0;strokeColor=#6c8ebf;" vertex="1" parent="88DA4RzG58VflkBBN9f2-5">
          <mxGeometry width="30" height="30" as="geometry" />
        </mxCell>
        <mxCell id="88DA4RzG58VflkBBN9f2-7" value="customerFname String NOT NULL" style="shape=partialRectangle;overflow=hidden;connectable=0;fillColor=#dae8fc;top=0;left=0;bottom=0;right=0;align=left;spacingLeft=6;strokeColor=#6c8ebf;" vertex="1" parent="88DA4RzG58VflkBBN9f2-5">
          <mxGeometry x="30" width="216.47" height="30" as="geometry" />
        </mxCell>
        <mxCell id="88DA4RzG58VflkBBN9f2-8" value="" style="shape=partialRectangle;collapsible=0;dropTarget=0;pointerEvents=0;fillColor=#dae8fc;points=[[0,0.5],[1,0.5]];portConstraint=eastwest;top=0;left=0;right=0;bottom=0;strokeColor=#6c8ebf;" vertex="1" parent="88DA4RzG58VflkBBN9f2-1">
          <mxGeometry y="100" width="246.47" height="30" as="geometry" />
        </mxCell>
        <mxCell id="88DA4RzG58VflkBBN9f2-9" value="" style="shape=partialRectangle;overflow=hidden;connectable=0;fillColor=#dae8fc;top=0;left=0;bottom=0;right=0;strokeColor=#6c8ebf;" vertex="1" parent="88DA4RzG58VflkBBN9f2-8">
          <mxGeometry width="30" height="30" as="geometry" />
        </mxCell>
        <mxCell id="88DA4RzG58VflkBBN9f2-10" value="customerLname String NOT NULL" style="shape=partialRectangle;overflow=hidden;connectable=0;fillColor=#dae8fc;top=0;left=0;bottom=0;right=0;align=left;spacingLeft=6;strokeColor=#6c8ebf;" vertex="1" parent="88DA4RzG58VflkBBN9f2-8">
          <mxGeometry x="30" width="216.47" height="30" as="geometry" />
        </mxCell>
        <mxCell id="88DA4RzG58VflkBBN9f2-11" value="" style="shape=partialRectangle;collapsible=0;dropTarget=0;pointerEvents=0;fillColor=#dae8fc;points=[[0,0.5],[1,0.5]];portConstraint=eastwest;top=0;left=0;right=0;bottom=0;strokeColor=#6c8ebf;" vertex="1" parent="88DA4RzG58VflkBBN9f2-1">
          <mxGeometry y="130" width="246.47" height="30" as="geometry" />
        </mxCell>
        <mxCell id="88DA4RzG58VflkBBN9f2-12" value="" style="shape=partialRectangle;overflow=hidden;connectable=0;fillColor=#dae8fc;top=0;left=0;bottom=0;right=0;strokeColor=#6c8ebf;" vertex="1" parent="88DA4RzG58VflkBBN9f2-11">
          <mxGeometry width="30" height="30" as="geometry" />
        </mxCell>
        <mxCell id="88DA4RzG58VflkBBN9f2-13" value="address String NOT NULL" style="shape=partialRectangle;overflow=hidden;connectable=0;fillColor=#dae8fc;top=0;left=0;bottom=0;right=0;align=left;spacingLeft=6;strokeColor=#6c8ebf;" vertex="1" parent="88DA4RzG58VflkBBN9f2-11">
          <mxGeometry x="30" width="216.47" height="30" as="geometry" />
        </mxCell>
        <mxCell id="88DA4RzG58VflkBBN9f2-14" value="" style="shape=partialRectangle;collapsible=0;dropTarget=0;pointerEvents=0;fillColor=#dae8fc;points=[[0,0.5],[1,0.5]];portConstraint=eastwest;top=0;left=0;right=0;bottom=0;strokeColor=#6c8ebf;" vertex="1" parent="88DA4RzG58VflkBBN9f2-1">
          <mxGeometry y="160" width="246.47" height="30" as="geometry" />
        </mxCell>
        <mxCell id="88DA4RzG58VflkBBN9f2-15" value="" style="shape=partialRectangle;overflow=hidden;connectable=0;fillColor=#dae8fc;top=0;left=0;bottom=0;right=0;strokeColor=#6c8ebf;" vertex="1" parent="88DA4RzG58VflkBBN9f2-14">
          <mxGeometry width="30" height="30" as="geometry" />
        </mxCell>
        <mxCell id="88DA4RzG58VflkBBN9f2-16" value="contactNumber String NOT NULL" style="shape=partialRectangle;overflow=hidden;connectable=0;fillColor=#dae8fc;top=0;left=0;bottom=0;right=0;align=left;spacingLeft=6;strokeColor=#6c8ebf;" vertex="1" parent="88DA4RzG58VflkBBN9f2-14">
          <mxGeometry x="30" width="216.47" height="30" as="geometry" />
        </mxCell>
        <mxCell id="88DA4RzG58VflkBBN9f2-17" value="invoice" style="shape=table;startSize=30;container=1;collapsible=1;childLayout=tableLayout;fixedRows=1;rowLines=0;fontStyle=1;align=center;resizeLast=1;fillColor=#dae8fc;strokeColor=#6c8ebf;" vertex="1" parent="1">
          <mxGeometry x="330" y="-680" width="241.47" height="360" as="geometry" />
        </mxCell>
        <mxCell id="88DA4RzG58VflkBBN9f2-18" value="" style="shape=partialRectangle;collapsible=0;dropTarget=0;pointerEvents=0;fillColor=#dae8fc;points=[[0,0.5],[1,0.5]];portConstraint=eastwest;top=0;left=0;right=0;bottom=1;strokeColor=#6c8ebf;" vertex="1" parent="88DA4RzG58VflkBBN9f2-17">
          <mxGeometry y="30" width="241.47" height="30" as="geometry" />
        </mxCell>
        <mxCell id="88DA4RzG58VflkBBN9f2-19" value="PK" style="shape=partialRectangle;overflow=hidden;connectable=0;fillColor=#dae8fc;top=0;left=0;bottom=0;right=0;fontStyle=1;strokeColor=#6c8ebf;" vertex="1" parent="88DA4RzG58VflkBBN9f2-18">
          <mxGeometry width="30" height="30" as="geometry" />
        </mxCell>
        <mxCell id="88DA4RzG58VflkBBN9f2-20" value=" invoiceId String NOT NULL " style="shape=partialRectangle;overflow=hidden;connectable=0;fillColor=#dae8fc;top=0;left=0;bottom=0;right=0;align=left;spacingLeft=6;fontStyle=5;strokeColor=#6c8ebf;" vertex="1" parent="88DA4RzG58VflkBBN9f2-18">
          <mxGeometry x="30" width="211.47" height="30" as="geometry" />
        </mxCell>
        <mxCell id="88DA4RzG58VflkBBN9f2-21" value="" style="shape=partialRectangle;collapsible=0;dropTarget=0;pointerEvents=0;fillColor=#dae8fc;points=[[0,0.5],[1,0.5]];portConstraint=eastwest;top=0;left=0;right=0;bottom=0;strokeColor=#6c8ebf;" vertex="1" parent="88DA4RzG58VflkBBN9f2-17">
          <mxGeometry y="60" width="241.47" height="30" as="geometry" />
        </mxCell>
        <mxCell id="88DA4RzG58VflkBBN9f2-22" value="" style="shape=partialRectangle;overflow=hidden;connectable=0;fillColor=#dae8fc;top=0;left=0;bottom=0;right=0;strokeColor=#6c8ebf;" vertex="1" parent="88DA4RzG58VflkBBN9f2-21">
          <mxGeometry width="30" height="30" as="geometry" />
        </mxCell>
        <mxCell id="88DA4RzG58VflkBBN9f2-23" value="dateTime Date NOT NULL" style="shape=partialRectangle;overflow=hidden;connectable=0;fillColor=#dae8fc;top=0;left=0;bottom=0;right=0;align=left;spacingLeft=6;strokeColor=#6c8ebf;" vertex="1" parent="88DA4RzG58VflkBBN9f2-21">
          <mxGeometry x="30" width="211.47" height="30" as="geometry" />
        </mxCell>
        <mxCell id="88DA4RzG58VflkBBN9f2-24" value="" style="shape=partialRectangle;collapsible=0;dropTarget=0;pointerEvents=0;fillColor=#dae8fc;points=[[0,0.5],[1,0.5]];portConstraint=eastwest;top=0;left=0;right=0;bottom=0;strokeColor=#6c8ebf;" vertex="1" parent="88DA4RzG58VflkBBN9f2-17">
          <mxGeometry y="90" width="241.47" height="30" as="geometry" />
        </mxCell>
        <mxCell id="88DA4RzG58VflkBBN9f2-25" value="FK" style="shape=partialRectangle;overflow=hidden;connectable=0;fillColor=#dae8fc;top=0;left=0;bottom=0;right=0;strokeColor=#6c8ebf;" vertex="1" parent="88DA4RzG58VflkBBN9f2-24">
          <mxGeometry width="30" height="30" as="geometry" />
        </mxCell>
        <mxCell id="88DA4RzG58VflkBBN9f2-26" value="userId String NOT NULL" style="shape=partialRectangle;overflow=hidden;connectable=0;fillColor=#dae8fc;top=0;left=0;bottom=0;right=0;align=left;spacingLeft=6;strokeColor=#6c8ebf;" vertex="1" parent="88DA4RzG58VflkBBN9f2-24">
          <mxGeometry x="30" width="211.47" height="30" as="geometry" />
        </mxCell>
        <mxCell id="88DA4RzG58VflkBBN9f2-27" value="" style="shape=partialRectangle;collapsible=0;dropTarget=0;pointerEvents=0;fillColor=#dae8fc;points=[[0,0.5],[1,0.5]];portConstraint=eastwest;top=0;left=0;right=0;bottom=0;strokeColor=#6c8ebf;" vertex="1" parent="88DA4RzG58VflkBBN9f2-17">
          <mxGeometry y="120" width="241.47" height="30" as="geometry" />
        </mxCell>
        <mxCell id="88DA4RzG58VflkBBN9f2-28" value="" style="shape=partialRectangle;overflow=hidden;connectable=0;fillColor=#dae8fc;top=0;left=0;bottom=0;right=0;strokeColor=#6c8ebf;" vertex="1" parent="88DA4RzG58VflkBBN9f2-27">
          <mxGeometry width="30" height="30" as="geometry" />
        </mxCell>
        <mxCell id="88DA4RzG58VflkBBN9f2-29" value="payMethod String NOT NULL" style="shape=partialRectangle;overflow=hidden;connectable=0;fillColor=#dae8fc;top=0;left=0;bottom=0;right=0;align=left;spacingLeft=6;strokeColor=#6c8ebf;" vertex="1" parent="88DA4RzG58VflkBBN9f2-27">
          <mxGeometry x="30" width="211.47" height="30" as="geometry" />
        </mxCell>
        <mxCell id="88DA4RzG58VflkBBN9f2-49" value="" style="shape=partialRectangle;collapsible=0;dropTarget=0;pointerEvents=0;fillColor=#dae8fc;points=[[0,0.5],[1,0.5]];portConstraint=eastwest;top=0;left=0;right=0;bottom=0;strokeColor=#6c8ebf;" vertex="1" parent="88DA4RzG58VflkBBN9f2-17">
          <mxGeometry y="150" width="241.47" height="30" as="geometry" />
        </mxCell>
        <mxCell id="88DA4RzG58VflkBBN9f2-50" value="" style="shape=partialRectangle;overflow=hidden;connectable=0;fillColor=#dae8fc;top=0;left=0;bottom=0;right=0;strokeColor=#6c8ebf;" vertex="1" parent="88DA4RzG58VflkBBN9f2-49">
          <mxGeometry width="30" height="30" as="geometry" />
        </mxCell>
        <mxCell id="88DA4RzG58VflkBBN9f2-51" value="payMethod String NOT NULL" style="shape=partialRectangle;overflow=hidden;connectable=0;fillColor=#dae8fc;top=0;left=0;bottom=0;right=0;align=left;spacingLeft=6;strokeColor=#6c8ebf;" vertex="1" parent="88DA4RzG58VflkBBN9f2-49">
          <mxGeometry x="30" width="211.47" height="30" as="geometry" />
        </mxCell>
        <mxCell id="88DA4RzG58VflkBBN9f2-30" value="" style="shape=partialRectangle;collapsible=0;dropTarget=0;pointerEvents=0;fillColor=#dae8fc;points=[[0,0.5],[1,0.5]];portConstraint=eastwest;top=0;left=0;right=0;bottom=0;strokeColor=#6c8ebf;" vertex="1" parent="88DA4RzG58VflkBBN9f2-17">
          <mxGeometry y="180" width="241.47" height="30" as="geometry" />
        </mxCell>
        <mxCell id="88DA4RzG58VflkBBN9f2-31" value="" style="shape=partialRectangle;overflow=hidden;connectable=0;fillColor=#dae8fc;top=0;left=0;bottom=0;right=0;strokeColor=#6c8ebf;" vertex="1" parent="88DA4RzG58VflkBBN9f2-30">
          <mxGeometry width="30" height="30" as="geometry" />
        </mxCell>
        <mxCell id="88DA4RzG58VflkBBN9f2-32" value="totalDiscount int NOT NULL" style="shape=partialRectangle;overflow=hidden;connectable=0;fillColor=#dae8fc;top=0;left=0;bottom=0;right=0;align=left;spacingLeft=6;strokeColor=#6c8ebf;" vertex="1" parent="88DA4RzG58VflkBBN9f2-30">
          <mxGeometry x="30" width="211.47" height="30" as="geometry" />
        </mxCell>
        <mxCell id="88DA4RzG58VflkBBN9f2-33" value="" style="shape=partialRectangle;collapsible=0;dropTarget=0;pointerEvents=0;fillColor=#dae8fc;points=[[0,0.5],[1,0.5]];portConstraint=eastwest;top=0;left=0;right=0;bottom=0;strokeColor=#6c8ebf;" vertex="1" parent="88DA4RzG58VflkBBN9f2-17">
          <mxGeometry y="210" width="241.47" height="30" as="geometry" />
        </mxCell>
        <mxCell id="88DA4RzG58VflkBBN9f2-34" value="" style="shape=partialRectangle;overflow=hidden;connectable=0;fillColor=#dae8fc;top=0;left=0;bottom=0;right=0;strokeColor=#6c8ebf;" vertex="1" parent="88DA4RzG58VflkBBN9f2-33">
          <mxGeometry width="30" height="30" as="geometry" />
        </mxCell>
        <mxCell id="88DA4RzG58VflkBBN9f2-35" value="totalValue int NOT NULL" style="shape=partialRectangle;overflow=hidden;connectable=0;fillColor=#dae8fc;top=0;left=0;bottom=0;right=0;align=left;spacingLeft=6;strokeColor=#6c8ebf;" vertex="1" parent="88DA4RzG58VflkBBN9f2-33">
          <mxGeometry x="30" width="211.47" height="30" as="geometry" />
        </mxCell>
        <mxCell id="88DA4RzG58VflkBBN9f2-36" value="" style="shape=partialRectangle;collapsible=0;dropTarget=0;pointerEvents=0;fillColor=#dae8fc;points=[[0,0.5],[1,0.5]];portConstraint=eastwest;top=0;left=0;right=0;bottom=0;strokeColor=#6c8ebf;" vertex="1" parent="88DA4RzG58VflkBBN9f2-17">
          <mxGeometry y="240" width="241.47" height="30" as="geometry" />
        </mxCell>
        <mxCell id="88DA4RzG58VflkBBN9f2-37" value="FK" style="shape=partialRectangle;overflow=hidden;connectable=0;fillColor=#dae8fc;top=0;left=0;bottom=0;right=0;strokeColor=#6c8ebf;" vertex="1" parent="88DA4RzG58VflkBBN9f2-36">
          <mxGeometry width="30" height="30" as="geometry" />
        </mxCell>
        <mxCell id="88DA4RzG58VflkBBN9f2-38" value="customer String NOT NULL" style="shape=partialRectangle;overflow=hidden;connectable=0;fillColor=#dae8fc;top=0;left=0;bottom=0;right=0;align=left;spacingLeft=6;strokeColor=#6c8ebf;" vertex="1" parent="88DA4RzG58VflkBBN9f2-36">
          <mxGeometry x="30" width="211.47" height="30" as="geometry" />
        </mxCell>
        <mxCell id="88DA4RzG58VflkBBN9f2-39" value="" style="shape=partialRectangle;collapsible=0;dropTarget=0;pointerEvents=0;fillColor=#dae8fc;points=[[0,0.5],[1,0.5]];portConstraint=eastwest;top=0;left=0;right=0;bottom=0;strokeColor=#6c8ebf;" vertex="1" parent="88DA4RzG58VflkBBN9f2-17">
          <mxGeometry y="270" width="241.47" height="30" as="geometry" />
        </mxCell>
        <mxCell id="88DA4RzG58VflkBBN9f2-40" value="" style="shape=partialRectangle;overflow=hidden;connectable=0;fillColor=#dae8fc;top=0;left=0;bottom=0;right=0;strokeColor=#6c8ebf;" vertex="1" parent="88DA4RzG58VflkBBN9f2-39">
          <mxGeometry width="30" height="30" as="geometry" />
        </mxCell>
        <mxCell id="88DA4RzG58VflkBBN9f2-41" value="totalItems int NOT NULL" style="shape=partialRectangle;overflow=hidden;connectable=0;fillColor=#dae8fc;top=0;left=0;bottom=0;right=0;align=left;spacingLeft=6;strokeColor=#6c8ebf;" vertex="1" parent="88DA4RzG58VflkBBN9f2-39">
          <mxGeometry x="30" width="211.47" height="30" as="geometry" />
        </mxCell>
        <mxCell id="88DA4RzG58VflkBBN9f2-42" value="" style="shape=partialRectangle;collapsible=0;dropTarget=0;pointerEvents=0;fillColor=#dae8fc;points=[[0,0.5],[1,0.5]];portConstraint=eastwest;top=0;left=0;right=0;bottom=0;strokeColor=#6c8ebf;" vertex="1" parent="88DA4RzG58VflkBBN9f2-17">
          <mxGeometry y="300" width="241.47" height="30" as="geometry" />
        </mxCell>
        <mxCell id="88DA4RzG58VflkBBN9f2-43" value="" style="shape=partialRectangle;overflow=hidden;connectable=0;fillColor=#dae8fc;top=0;left=0;bottom=0;right=0;strokeColor=#6c8ebf;" vertex="1" parent="88DA4RzG58VflkBBN9f2-42">
          <mxGeometry width="30" height="30" as="geometry" />
        </mxCell>
        <mxCell id="88DA4RzG58VflkBBN9f2-44" value="purchase  String [ ] NOT NULL" style="shape=partialRectangle;overflow=hidden;connectable=0;fillColor=#dae8fc;top=0;left=0;bottom=0;right=0;align=left;spacingLeft=6;strokeColor=#6c8ebf;" vertex="1" parent="88DA4RzG58VflkBBN9f2-42">
          <mxGeometry x="30" width="211.47" height="30" as="geometry" />
        </mxCell>
        <mxCell id="88DA4RzG58VflkBBN9f2-45" value="" style="shape=partialRectangle;collapsible=0;dropTarget=0;pointerEvents=0;fillColor=#dae8fc;points=[[0,0.5],[1,0.5]];portConstraint=eastwest;top=0;left=0;right=0;bottom=0;strokeColor=#6c8ebf;" vertex="1" parent="88DA4RzG58VflkBBN9f2-17">
          <mxGeometry y="330" width="241.47" height="30" as="geometry" />
        </mxCell>
        <mxCell id="88DA4RzG58VflkBBN9f2-46" value="" style="shape=partialRectangle;overflow=hidden;connectable=0;fillColor=#dae8fc;top=0;left=0;bottom=0;right=0;strokeColor=#6c8ebf;" vertex="1" parent="88DA4RzG58VflkBBN9f2-45">
          <mxGeometry width="30" height="30" as="geometry" />
        </mxCell>
        <mxCell id="88DA4RzG58VflkBBN9f2-47" value="isActive Boolean NOT NULL" style="shape=partialRectangle;overflow=hidden;connectable=0;fillColor=#dae8fc;top=0;left=0;bottom=0;right=0;align=left;spacingLeft=6;strokeColor=#6c8ebf;" vertex="1" parent="88DA4RzG58VflkBBN9f2-45">
          <mxGeometry x="30" width="211.47" height="30" as="geometry" />
        </mxCell>
        <mxCell id="88DA4RzG58VflkBBN9f2-48" style="edgeStyle=none;rounded=0;orthogonalLoop=1;jettySize=auto;html=1;entryX=0;entryY=0.5;entryDx=0;entryDy=0;startArrow=ERone;startFill=0;endArrow=ERmany;endFill=0;exitX=1;exitY=0.5;exitDx=0;exitDy=0;fillColor=#dae8fc;strokeColor=#6c8ebf;" edge="1" parent="1" target="88DA4RzG58VflkBBN9f2-36">
          <mxGeometry relative="1" as="geometry">
            <Array as="points">
              <mxPoint x="230" y="-540" />
              <mxPoint x="230" y="-425" />
            </Array>
            <mxPoint x="156.4699999999998" y="-540" as="sourcePoint" />
            <mxPoint x="263" y="-470" as="targetPoint" />
          </mxGeometry>
        </mxCell>
        <mxCell id="88DA4RzG58VflkBBN9f2-52" value="&lt;&lt; payMethod&gt;&gt;" style="shape=table;startSize=30;container=1;collapsible=1;childLayout=tableLayout;fixedRows=1;rowLines=0;fontStyle=1;align=center;resizeLast=1;fillColor=#dae8fc;strokeColor=#6c8ebf;" vertex="1" parent="1">
          <mxGeometry x="690" y="-590" width="150" height="190" as="geometry" />
        </mxCell>
        <mxCell id="88DA4RzG58VflkBBN9f2-53" value="" style="shape=partialRectangle;collapsible=0;dropTarget=0;pointerEvents=0;fillColor=#dae8fc;points=[[0,0.5],[1,0.5]];portConstraint=eastwest;top=0;left=0;right=0;bottom=1;strokeColor=#6c8ebf;" vertex="1" parent="88DA4RzG58VflkBBN9f2-52">
          <mxGeometry y="30" width="150" height="30" as="geometry" />
        </mxCell>
        <mxCell id="88DA4RzG58VflkBBN9f2-54" value="" style="shape=partialRectangle;overflow=hidden;connectable=0;fillColor=#dae8fc;top=0;left=0;bottom=0;right=0;fontStyle=1;strokeColor=#6c8ebf;" vertex="1" parent="88DA4RzG58VflkBBN9f2-53">
          <mxGeometry width="30" height="30" as="geometry" />
        </mxCell>
        <mxCell id="88DA4RzG58VflkBBN9f2-55" value="CASH" style="shape=partialRectangle;overflow=hidden;connectable=0;fillColor=#dae8fc;top=0;left=0;bottom=0;right=0;align=left;spacingLeft=6;fontStyle=5;strokeColor=#6c8ebf;" vertex="1" parent="88DA4RzG58VflkBBN9f2-53">
          <mxGeometry x="30" width="120" height="30" as="geometry" />
        </mxCell>
        <mxCell id="88DA4RzG58VflkBBN9f2-56" value="" style="shape=partialRectangle;collapsible=0;dropTarget=0;pointerEvents=0;fillColor=#dae8fc;points=[[0,0.5],[1,0.5]];portConstraint=eastwest;top=0;left=0;right=0;bottom=0;strokeColor=#6c8ebf;" vertex="1" parent="88DA4RzG58VflkBBN9f2-52">
          <mxGeometry y="60" width="150" height="30" as="geometry" />
        </mxCell>
        <mxCell id="88DA4RzG58VflkBBN9f2-57" value="" style="shape=partialRectangle;overflow=hidden;connectable=0;fillColor=#dae8fc;top=0;left=0;bottom=0;right=0;strokeColor=#6c8ebf;" vertex="1" parent="88DA4RzG58VflkBBN9f2-56">
          <mxGeometry width="30" height="30" as="geometry" />
        </mxCell>
        <mxCell id="88DA4RzG58VflkBBN9f2-58" value="VISA" style="shape=partialRectangle;overflow=hidden;connectable=0;fillColor=#dae8fc;top=0;left=0;bottom=0;right=0;align=left;spacingLeft=6;strokeColor=#6c8ebf;" vertex="1" parent="88DA4RzG58VflkBBN9f2-56">
          <mxGeometry x="30" width="120" height="30" as="geometry" />
        </mxCell>
        <mxCell id="88DA4RzG58VflkBBN9f2-59" value="" style="shape=partialRectangle;collapsible=0;dropTarget=0;pointerEvents=0;fillColor=#dae8fc;points=[[0,0.5],[1,0.5]];portConstraint=eastwest;top=0;left=0;right=0;bottom=0;strokeColor=#6c8ebf;" vertex="1" parent="88DA4RzG58VflkBBN9f2-52">
          <mxGeometry y="90" width="150" height="30" as="geometry" />
        </mxCell>
        <mxCell id="88DA4RzG58VflkBBN9f2-60" value="" style="shape=partialRectangle;overflow=hidden;connectable=0;fillColor=#dae8fc;top=0;left=0;bottom=0;right=0;strokeColor=#6c8ebf;" vertex="1" parent="88DA4RzG58VflkBBN9f2-59">
          <mxGeometry width="30" height="30" as="geometry" />
        </mxCell>
        <mxCell id="88DA4RzG58VflkBBN9f2-61" value="MASTER_CARD" style="shape=partialRectangle;overflow=hidden;connectable=0;fillColor=#dae8fc;top=0;left=0;bottom=0;right=0;align=left;spacingLeft=6;strokeColor=#6c8ebf;" vertex="1" parent="88DA4RzG58VflkBBN9f2-59">
          <mxGeometry x="30" width="120" height="30" as="geometry" />
        </mxCell>
        <mxCell id="88DA4RzG58VflkBBN9f2-62" value="" style="shape=partialRectangle;collapsible=0;dropTarget=0;pointerEvents=0;fillColor=#dae8fc;points=[[0,0.5],[1,0.5]];portConstraint=eastwest;top=0;left=0;right=0;bottom=0;strokeColor=#6c8ebf;" vertex="1" parent="88DA4RzG58VflkBBN9f2-52">
          <mxGeometry y="120" width="150" height="30" as="geometry" />
        </mxCell>
        <mxCell id="88DA4RzG58VflkBBN9f2-63" value="" style="shape=partialRectangle;overflow=hidden;connectable=0;fillColor=#dae8fc;top=0;left=0;bottom=0;right=0;strokeColor=#6c8ebf;" vertex="1" parent="88DA4RzG58VflkBBN9f2-62">
          <mxGeometry width="30" height="30" as="geometry" />
        </mxCell>
        <mxCell id="88DA4RzG58VflkBBN9f2-64" value="AMEX" style="shape=partialRectangle;overflow=hidden;connectable=0;fillColor=#dae8fc;top=0;left=0;bottom=0;right=0;align=left;spacingLeft=6;strokeColor=#6c8ebf;" vertex="1" parent="88DA4RzG58VflkBBN9f2-62">
          <mxGeometry x="30" width="120" height="30" as="geometry" />
        </mxCell>
        <mxCell id="88DA4RzG58VflkBBN9f2-65" value="" style="shape=partialRectangle;collapsible=0;dropTarget=0;pointerEvents=0;fillColor=#dae8fc;points=[[0,0.5],[1,0.5]];portConstraint=eastwest;top=0;left=0;right=0;bottom=0;strokeColor=#6c8ebf;" vertex="1" parent="88DA4RzG58VflkBBN9f2-52">
          <mxGeometry y="150" width="150" height="30" as="geometry" />
        </mxCell>
        <mxCell id="88DA4RzG58VflkBBN9f2-66" value="" style="shape=partialRectangle;overflow=hidden;connectable=0;fillColor=#dae8fc;top=0;left=0;bottom=0;right=0;strokeColor=#6c8ebf;" vertex="1" parent="88DA4RzG58VflkBBN9f2-65">
          <mxGeometry width="30" height="30" as="geometry" />
        </mxCell>
        <mxCell id="88DA4RzG58VflkBBN9f2-67" value="ONLINE" style="shape=partialRectangle;overflow=hidden;connectable=0;fillColor=#dae8fc;top=0;left=0;bottom=0;right=0;align=left;spacingLeft=6;strokeColor=#6c8ebf;" vertex="1" parent="88DA4RzG58VflkBBN9f2-65">
          <mxGeometry x="30" width="120" height="30" as="geometry" />
        </mxCell>
        <mxCell id="88DA4RzG58VflkBBN9f2-68" style="edgeStyle=none;rounded=0;orthogonalLoop=1;jettySize=auto;html=1;startArrow=none;startFill=0;endArrow=none;endFill=0;exitX=1;exitY=0.5;exitDx=0;exitDy=0;entryX=0;entryY=0.5;entryDx=0;entryDy=0;fillColor=#dae8fc;strokeColor=#6c8ebf;" edge="1" parent="1" target="88DA4RzG58VflkBBN9f2-53" source="88DA4RzG58VflkBBN9f2-27">
          <mxGeometry relative="1" as="geometry">
            <Array as="points" />
            <mxPoint x="601.4699999999998" y="-520" as="sourcePoint" />
          </mxGeometry>
        </mxCell>
        <mxCell id="88DA4RzG58VflkBBN9f2-69" value="purchase" style="shape=table;startSize=30;container=1;collapsible=1;childLayout=tableLayout;fixedRows=1;rowLines=0;fontStyle=1;align=center;resizeLast=1;fillColor=#dae8fc;strokeColor=#6c8ebf;" vertex="1" parent="1">
          <mxGeometry x="870" y="-180" width="250" height="300" as="geometry" />
        </mxCell>
        <mxCell id="88DA4RzG58VflkBBN9f2-70" value="" style="shape=partialRectangle;collapsible=0;dropTarget=0;pointerEvents=0;fillColor=#dae8fc;points=[[0,0.5],[1,0.5]];portConstraint=eastwest;top=0;left=0;right=0;bottom=1;strokeColor=#6c8ebf;" vertex="1" parent="88DA4RzG58VflkBBN9f2-69">
          <mxGeometry y="30" width="250" height="30" as="geometry" />
        </mxCell>
        <mxCell id="88DA4RzG58VflkBBN9f2-71" value="PK" style="shape=partialRectangle;overflow=hidden;connectable=0;fillColor=#dae8fc;top=0;left=0;bottom=0;right=0;fontStyle=1;strokeColor=#6c8ebf;" vertex="1" parent="88DA4RzG58VflkBBN9f2-70">
          <mxGeometry width="30" height="30" as="geometry" />
        </mxCell>
        <mxCell id="88DA4RzG58VflkBBN9f2-72" value="purchaseId String  NOT NULL " style="shape=partialRectangle;overflow=hidden;connectable=0;fillColor=#dae8fc;top=0;left=0;bottom=0;right=0;align=left;spacingLeft=6;fontStyle=5;strokeColor=#6c8ebf;" vertex="1" parent="88DA4RzG58VflkBBN9f2-70">
          <mxGeometry x="30" width="220" height="30" as="geometry" />
        </mxCell>
        <mxCell id="88DA4RzG58VflkBBN9f2-73" value="" style="shape=partialRectangle;collapsible=0;dropTarget=0;pointerEvents=0;fillColor=#dae8fc;points=[[0,0.5],[1,0.5]];portConstraint=eastwest;top=0;left=0;right=0;bottom=0;strokeColor=#6c8ebf;" vertex="1" parent="88DA4RzG58VflkBBN9f2-69">
          <mxGeometry y="60" width="250" height="30" as="geometry" />
        </mxCell>
        <mxCell id="88DA4RzG58VflkBBN9f2-74" value="FK" style="shape=partialRectangle;overflow=hidden;connectable=0;fillColor=#dae8fc;top=0;left=0;bottom=0;right=0;strokeColor=#6c8ebf;" vertex="1" parent="88DA4RzG58VflkBBN9f2-73">
          <mxGeometry width="30" height="30" as="geometry" />
        </mxCell>
        <mxCell id="88DA4RzG58VflkBBN9f2-75" value="invoiceId String  NOT NULL" style="shape=partialRectangle;overflow=hidden;connectable=0;fillColor=#dae8fc;top=0;left=0;bottom=0;right=0;align=left;spacingLeft=6;strokeColor=#6c8ebf;" vertex="1" parent="88DA4RzG58VflkBBN9f2-73">
          <mxGeometry x="30" width="220" height="30" as="geometry" />
        </mxCell>
        <mxCell id="88DA4RzG58VflkBBN9f2-76" value="" style="shape=partialRectangle;collapsible=0;dropTarget=0;pointerEvents=0;fillColor=#dae8fc;points=[[0,0.5],[1,0.5]];portConstraint=eastwest;top=0;left=0;right=0;bottom=0;strokeColor=#6c8ebf;" vertex="1" parent="88DA4RzG58VflkBBN9f2-69">
          <mxGeometry y="90" width="250" height="30" as="geometry" />
        </mxCell>
        <mxCell id="88DA4RzG58VflkBBN9f2-77" value="" style="shape=partialRectangle;overflow=hidden;connectable=0;fillColor=#dae8fc;top=0;left=0;bottom=0;right=0;strokeColor=#6c8ebf;" vertex="1" parent="88DA4RzG58VflkBBN9f2-76">
          <mxGeometry width="30" height="30" as="geometry" />
        </mxCell>
        <mxCell id="88DA4RzG58VflkBBN9f2-78" value="qty int  NOT NULL" style="shape=partialRectangle;overflow=hidden;connectable=0;fillColor=#dae8fc;top=0;left=0;bottom=0;right=0;align=left;spacingLeft=6;strokeColor=#6c8ebf;" vertex="1" parent="88DA4RzG58VflkBBN9f2-76">
          <mxGeometry x="30" width="220" height="30" as="geometry" />
        </mxCell>
        <mxCell id="88DA4RzG58VflkBBN9f2-79" value="" style="shape=partialRectangle;collapsible=0;dropTarget=0;pointerEvents=0;fillColor=#dae8fc;points=[[0,0.5],[1,0.5]];portConstraint=eastwest;top=0;left=0;right=0;bottom=0;strokeColor=#6c8ebf;" vertex="1" parent="88DA4RzG58VflkBBN9f2-69">
          <mxGeometry y="120" width="250" height="30" as="geometry" />
        </mxCell>
        <mxCell id="88DA4RzG58VflkBBN9f2-80" value="" style="shape=partialRectangle;overflow=hidden;connectable=0;fillColor=#dae8fc;top=0;left=0;bottom=0;right=0;strokeColor=#6c8ebf;" vertex="1" parent="88DA4RzG58VflkBBN9f2-79">
          <mxGeometry width="30" height="30" as="geometry" />
        </mxCell>
        <mxCell id="88DA4RzG58VflkBBN9f2-81" value=" discount int  NOT NULL" style="shape=partialRectangle;overflow=hidden;connectable=0;fillColor=#dae8fc;top=0;left=0;bottom=0;right=0;align=left;spacingLeft=6;strokeColor=#6c8ebf;" vertex="1" parent="88DA4RzG58VflkBBN9f2-79">
          <mxGeometry x="30" width="220" height="30" as="geometry" />
        </mxCell>
        <mxCell id="88DA4RzG58VflkBBN9f2-82" value="" style="shape=partialRectangle;collapsible=0;dropTarget=0;pointerEvents=0;fillColor=#dae8fc;points=[[0,0.5],[1,0.5]];portConstraint=eastwest;top=0;left=0;right=0;bottom=0;strokeColor=#6c8ebf;" vertex="1" parent="88DA4RzG58VflkBBN9f2-69">
          <mxGeometry y="150" width="250" height="30" as="geometry" />
        </mxCell>
        <mxCell id="88DA4RzG58VflkBBN9f2-83" value="" style="shape=partialRectangle;overflow=hidden;connectable=0;fillColor=#dae8fc;top=0;left=0;bottom=0;right=0;strokeColor=#6c8ebf;" vertex="1" parent="88DA4RzG58VflkBBN9f2-82">
          <mxGeometry width="30" height="30" as="geometry" />
        </mxCell>
        <mxCell id="88DA4RzG58VflkBBN9f2-84" value="unitPrice int NOT NULL" style="shape=partialRectangle;overflow=hidden;connectable=0;fillColor=#dae8fc;top=0;left=0;bottom=0;right=0;align=left;spacingLeft=6;strokeColor=#6c8ebf;" vertex="1" parent="88DA4RzG58VflkBBN9f2-82">
          <mxGeometry x="30" width="220" height="30" as="geometry" />
        </mxCell>
        <mxCell id="88DA4RzG58VflkBBN9f2-85" value="" style="shape=partialRectangle;collapsible=0;dropTarget=0;pointerEvents=0;fillColor=#dae8fc;points=[[0,0.5],[1,0.5]];portConstraint=eastwest;top=0;left=0;right=0;bottom=0;strokeColor=#6c8ebf;" vertex="1" parent="88DA4RzG58VflkBBN9f2-69">
          <mxGeometry y="180" width="250" height="30" as="geometry" />
        </mxCell>
        <mxCell id="88DA4RzG58VflkBBN9f2-86" value="FK" style="shape=partialRectangle;overflow=hidden;connectable=0;fillColor=#dae8fc;top=0;left=0;bottom=0;right=0;strokeColor=#6c8ebf;" vertex="1" parent="88DA4RzG58VflkBBN9f2-85">
          <mxGeometry width="30" height="30" as="geometry" />
        </mxCell>
        <mxCell id="88DA4RzG58VflkBBN9f2-87" value="item String  NOT NULL" style="shape=partialRectangle;overflow=hidden;connectable=0;fillColor=#dae8fc;top=0;left=0;bottom=0;right=0;align=left;spacingLeft=6;strokeColor=#6c8ebf;" vertex="1" parent="88DA4RzG58VflkBBN9f2-85">
          <mxGeometry x="30" width="220" height="30" as="geometry" />
        </mxCell>
        <mxCell id="88DA4RzG58VflkBBN9f2-88" value="" style="shape=partialRectangle;collapsible=0;dropTarget=0;pointerEvents=0;fillColor=#dae8fc;points=[[0,0.5],[1,0.5]];portConstraint=eastwest;top=0;left=0;right=0;bottom=0;strokeColor=#6c8ebf;" vertex="1" parent="88DA4RzG58VflkBBN9f2-69">
          <mxGeometry y="210" width="250" height="30" as="geometry" />
        </mxCell>
        <mxCell id="88DA4RzG58VflkBBN9f2-89" value="FK" style="shape=partialRectangle;overflow=hidden;connectable=0;fillColor=#dae8fc;top=0;left=0;bottom=0;right=0;strokeColor=#6c8ebf;" vertex="1" parent="88DA4RzG58VflkBBN9f2-88">
          <mxGeometry width="30" height="30" as="geometry" />
        </mxCell>
        <mxCell id="88DA4RzG58VflkBBN9f2-90" value="category String NOT NULL" style="shape=partialRectangle;overflow=hidden;connectable=0;fillColor=#dae8fc;top=0;left=0;bottom=0;right=0;align=left;spacingLeft=6;strokeColor=#6c8ebf;" vertex="1" parent="88DA4RzG58VflkBBN9f2-88">
          <mxGeometry x="30" width="220" height="30" as="geometry" />
        </mxCell>
        <mxCell id="88DA4RzG58VflkBBN9f2-91" value="" style="shape=partialRectangle;collapsible=0;dropTarget=0;pointerEvents=0;fillColor=#dae8fc;points=[[0,0.5],[1,0.5]];portConstraint=eastwest;top=0;left=0;right=0;bottom=0;strokeColor=#6c8ebf;" vertex="1" parent="88DA4RzG58VflkBBN9f2-69">
          <mxGeometry y="240" width="250" height="30" as="geometry" />
        </mxCell>
        <mxCell id="88DA4RzG58VflkBBN9f2-92" value="" style="shape=partialRectangle;overflow=hidden;connectable=0;fillColor=#dae8fc;top=0;left=0;bottom=0;right=0;strokeColor=#6c8ebf;" vertex="1" parent="88DA4RzG58VflkBBN9f2-91">
          <mxGeometry width="30" height="30" as="geometry" />
        </mxCell>
        <mxCell id="88DA4RzG58VflkBBN9f2-93" value="dateTime Date  NOT NULL" style="shape=partialRectangle;overflow=hidden;connectable=0;fillColor=#dae8fc;top=0;left=0;bottom=0;right=0;align=left;spacingLeft=6;strokeColor=#6c8ebf;" vertex="1" parent="88DA4RzG58VflkBBN9f2-91">
          <mxGeometry x="30" width="220" height="30" as="geometry" />
        </mxCell>
        <mxCell id="88DA4RzG58VflkBBN9f2-94" value="" style="shape=partialRectangle;collapsible=0;dropTarget=0;pointerEvents=0;fillColor=#dae8fc;points=[[0,0.5],[1,0.5]];portConstraint=eastwest;top=0;left=0;right=0;bottom=0;strokeColor=#6c8ebf;" vertex="1" parent="88DA4RzG58VflkBBN9f2-69">
          <mxGeometry y="270" width="250" height="30" as="geometry" />
        </mxCell>
        <mxCell id="88DA4RzG58VflkBBN9f2-95" value="" style="shape=partialRectangle;overflow=hidden;connectable=0;fillColor=#dae8fc;top=0;left=0;bottom=0;right=0;strokeColor=#6c8ebf;" vertex="1" parent="88DA4RzG58VflkBBN9f2-94">
          <mxGeometry width="30" height="30" as="geometry" />
        </mxCell>
        <mxCell id="88DA4RzG58VflkBBN9f2-96" value="" style="shape=partialRectangle;overflow=hidden;connectable=0;fillColor=#dae8fc;top=0;left=0;bottom=0;right=0;align=left;spacingLeft=6;strokeColor=#6c8ebf;" vertex="1" parent="88DA4RzG58VflkBBN9f2-94">
          <mxGeometry x="30" width="220" height="30" as="geometry" />
        </mxCell>
        <mxCell id="88DA4RzG58VflkBBN9f2-97" style="edgeStyle=none;rounded=0;orthogonalLoop=1;jettySize=auto;html=1;startArrow=ERmany;startFill=0;endArrow=ERone;endFill=0;entryX=1;entryY=0.5;entryDx=0;entryDy=0;exitX=1;exitY=0.5;exitDx=0;exitDy=0;fillColor=#dae8fc;strokeColor=#6c8ebf;" edge="1" parent="1" source="88DA4RzG58VflkBBN9f2-73" target="88DA4RzG58VflkBBN9f2-18">
          <mxGeometry relative="1" as="geometry">
            <mxPoint x="929.9999999999998" y="-620" as="targetPoint" />
            <mxPoint x="1135.53" y="-110" as="sourcePoint" />
            <Array as="points">
              <mxPoint x="1206" y="-105" />
              <mxPoint x="1206" y="-630" />
            </Array>
          </mxGeometry>
        </mxCell>
        <mxCell id="88DA4RzG58VflkBBN9f2-98" value="" style="group;fillColor=#dae8fc;strokeColor=#6c8ebf;" vertex="1" connectable="0" parent="1">
          <mxGeometry x="370" y="-180" width="247.05999999999995" height="350" as="geometry" />
        </mxCell>
        <mxCell id="88DA4RzG58VflkBBN9f2-99" value="item" style="shape=table;startSize=30;container=1;collapsible=1;childLayout=tableLayout;fixedRows=1;rowLines=0;fontStyle=1;align=center;resizeLast=1;fillColor=#dae8fc;strokeColor=#6c8ebf;" vertex="1" parent="88DA4RzG58VflkBBN9f2-98">
          <mxGeometry width="247.06" height="350" as="geometry" />
        </mxCell>
        <mxCell id="88DA4RzG58VflkBBN9f2-100" value="" style="shape=partialRectangle;collapsible=0;dropTarget=0;pointerEvents=0;fillColor=#dae8fc;points=[[0,0.5],[1,0.5]];portConstraint=eastwest;top=0;left=0;right=0;bottom=1;strokeColor=#6c8ebf;" vertex="1" parent="88DA4RzG58VflkBBN9f2-99">
          <mxGeometry y="30" width="247.06" height="30" as="geometry" />
        </mxCell>
        <mxCell id="88DA4RzG58VflkBBN9f2-101" value="PK" style="shape=partialRectangle;overflow=hidden;connectable=0;fillColor=#dae8fc;top=0;left=0;bottom=0;right=0;fontStyle=1;strokeColor=#6c8ebf;" vertex="1" parent="88DA4RzG58VflkBBN9f2-100">
          <mxGeometry width="30" height="30" as="geometry" />
        </mxCell>
        <mxCell id="88DA4RzG58VflkBBN9f2-102" value="itemId_String NOT NULL " style="shape=partialRectangle;overflow=hidden;connectable=0;fillColor=#dae8fc;top=0;left=0;bottom=0;right=0;align=left;spacingLeft=6;fontStyle=5;strokeColor=#6c8ebf;" vertex="1" parent="88DA4RzG58VflkBBN9f2-100">
          <mxGeometry x="30" width="217.06" height="30" as="geometry" />
        </mxCell>
        <mxCell id="88DA4RzG58VflkBBN9f2-103" value="" style="shape=partialRectangle;collapsible=0;dropTarget=0;pointerEvents=0;fillColor=#dae8fc;points=[[0,0.5],[1,0.5]];portConstraint=eastwest;top=0;left=0;right=0;bottom=0;strokeColor=#6c8ebf;" vertex="1" parent="88DA4RzG58VflkBBN9f2-99">
          <mxGeometry y="60" width="247.06" height="30" as="geometry" />
        </mxCell>
        <mxCell id="88DA4RzG58VflkBBN9f2-104" value="FK1" style="shape=partialRectangle;overflow=hidden;connectable=0;fillColor=#dae8fc;top=0;left=0;bottom=0;right=0;strokeColor=#6c8ebf;" vertex="1" parent="88DA4RzG58VflkBBN9f2-103">
          <mxGeometry width="30" height="30" as="geometry" />
        </mxCell>
        <mxCell id="88DA4RzG58VflkBBN9f2-105" value="" style="shape=partialRectangle;overflow=hidden;connectable=0;fillColor=#dae8fc;top=0;left=0;bottom=0;right=0;align=left;spacingLeft=6;strokeColor=#6c8ebf;" vertex="1" parent="88DA4RzG58VflkBBN9f2-103">
          <mxGeometry x="30" width="217.06" height="30" as="geometry" />
        </mxCell>
        <mxCell id="88DA4RzG58VflkBBN9f2-106" value="" style="shape=partialRectangle;collapsible=0;dropTarget=0;pointerEvents=0;fillColor=#dae8fc;points=[[0,0.5],[1,0.5]];portConstraint=eastwest;top=0;left=0;right=0;bottom=0;strokeColor=#6c8ebf;" vertex="1" parent="88DA4RzG58VflkBBN9f2-99">
          <mxGeometry y="90" width="247.06" height="20" as="geometry" />
        </mxCell>
        <mxCell id="88DA4RzG58VflkBBN9f2-107" value="" style="shape=partialRectangle;overflow=hidden;connectable=0;fillColor=#dae8fc;top=0;left=0;bottom=0;right=0;strokeColor=#6c8ebf;" vertex="1" parent="88DA4RzG58VflkBBN9f2-106">
          <mxGeometry width="30" height="20" as="geometry" />
        </mxCell>
        <mxCell id="88DA4RzG58VflkBBN9f2-108" value="" style="shape=partialRectangle;overflow=hidden;connectable=0;fillColor=#dae8fc;top=0;left=0;bottom=0;right=0;align=left;spacingLeft=6;strokeColor=#6c8ebf;" vertex="1" parent="88DA4RzG58VflkBBN9f2-106">
          <mxGeometry x="30" width="217.06" height="20" as="geometry" />
        </mxCell>
        <mxCell id="88DA4RzG58VflkBBN9f2-109" value="category  String NOT NULL " style="shape=partialRectangle;overflow=hidden;connectable=0;fillColor=#dae8fc;top=0;left=0;bottom=0;right=0;align=left;spacingLeft=6;strokeColor=#6c8ebf;" vertex="1" parent="88DA4RzG58VflkBBN9f2-98">
          <mxGeometry x="23.529999999999973" y="60" width="180" height="30" as="geometry" />
        </mxCell>
        <mxCell id="88DA4RzG58VflkBBN9f2-110" value="itemName String NOT NULL " style="shape=partialRectangle;overflow=hidden;connectable=0;fillColor=#dae8fc;top=0;left=0;bottom=0;right=0;align=left;spacingLeft=6;strokeColor=#6c8ebf;" vertex="1" parent="88DA4RzG58VflkBBN9f2-98">
          <mxGeometry x="23.529999999999973" y="91" width="200" height="30" as="geometry" />
        </mxCell>
        <mxCell id="88DA4RzG58VflkBBN9f2-111" value="tag  String [ ] NOT NULL " style="shape=partialRectangle;overflow=hidden;connectable=0;fillColor=#dae8fc;top=0;left=0;bottom=0;right=0;align=left;spacingLeft=6;strokeColor=#6c8ebf;" vertex="1" parent="88DA4RzG58VflkBBN9f2-98">
          <mxGeometry x="23.529999999999973" y="152" width="160" height="30" as="geometry" />
        </mxCell>
        <mxCell id="88DA4RzG58VflkBBN9f2-112" value="description  String NOT NULL " style="shape=partialRectangle;overflow=hidden;connectable=0;fillColor=#dae8fc;top=0;left=0;bottom=0;right=0;align=left;spacingLeft=6;strokeColor=#6c8ebf;" vertex="1" parent="88DA4RzG58VflkBBN9f2-98">
          <mxGeometry x="23.53" y="121" width="186.47" height="30" as="geometry" />
        </mxCell>
        <mxCell id="88DA4RzG58VflkBBN9f2-113" value="actualPrice int  NOT NULL " style="shape=partialRectangle;overflow=hidden;connectable=0;fillColor=#dae8fc;top=0;left=0;bottom=0;right=0;align=left;spacingLeft=6;strokeColor=#6c8ebf;" vertex="1" parent="88DA4RzG58VflkBBN9f2-98">
          <mxGeometry x="23.529999999999973" y="271" width="160" height="30" as="geometry" />
        </mxCell>
        <mxCell id="88DA4RzG58VflkBBN9f2-114" value="disValue int NOT NULL " style="shape=partialRectangle;overflow=hidden;connectable=0;fillColor=#dae8fc;top=0;left=0;bottom=0;right=0;align=left;spacingLeft=6;strokeColor=#6c8ebf;" vertex="1" parent="88DA4RzG58VflkBBN9f2-98">
          <mxGeometry x="23.529999999999973" y="240" width="160" height="30" as="geometry" />
        </mxCell>
        <mxCell id="88DA4RzG58VflkBBN9f2-115" value="price  int NOT NULL " style="shape=partialRectangle;overflow=hidden;connectable=0;fillColor=#dae8fc;top=0;left=0;bottom=0;right=0;align=left;spacingLeft=6;strokeColor=#6c8ebf;" vertex="1" parent="88DA4RzG58VflkBBN9f2-98">
          <mxGeometry x="23.529999999999973" y="210" width="160" height="30" as="geometry" />
        </mxCell>
        <mxCell id="88DA4RzG58VflkBBN9f2-116" value="cost  int NOT NULL " style="shape=partialRectangle;overflow=hidden;connectable=0;fillColor=#dae8fc;top=0;left=0;bottom=0;right=0;align=left;spacingLeft=6;strokeColor=#6c8ebf;" vertex="1" parent="88DA4RzG58VflkBBN9f2-98">
          <mxGeometry x="23.529999999999973" y="179" width="160" height="30" as="geometry" />
        </mxCell>
        <mxCell id="88DA4RzG58VflkBBN9f2-117" value="isActive Boolean NOT NULL " style="shape=partialRectangle;overflow=hidden;connectable=0;fillColor=#dae8fc;top=0;left=0;bottom=0;right=0;align=left;spacingLeft=6;strokeColor=#6c8ebf;" vertex="1" parent="88DA4RzG58VflkBBN9f2-98">
          <mxGeometry x="23.529999999999973" y="300" width="160" height="30" as="geometry" />
        </mxCell>
        <mxCell id="88DA4RzG58VflkBBN9f2-118" style="edgeStyle=none;rounded=0;orthogonalLoop=1;jettySize=auto;html=1;entryX=1;entryY=0.5;entryDx=0;entryDy=0;startArrow=ERmandOne;startFill=0;endArrow=ERzeroToMany;endFill=1;exitX=0;exitY=0.5;exitDx=0;exitDy=0;fillColor=#dae8fc;strokeColor=#6c8ebf;" edge="1" parent="1" source="88DA4RzG58VflkBBN9f2-85" target="88DA4RzG58VflkBBN9f2-100">
          <mxGeometry relative="1" as="geometry">
            <mxPoint x="802.94" as="sourcePoint" />
            <Array as="points">
              <mxPoint x="733" y="15" />
              <mxPoint x="733" y="-135" />
            </Array>
            <mxPoint x="650" y="-130" as="targetPoint" />
          </mxGeometry>
        </mxCell>
        <mxCell id="88DA4RzG58VflkBBN9f2-119" value="tag" style="shape=table;startSize=30;container=1;collapsible=1;childLayout=tableLayout;fixedRows=1;rowLines=0;fontStyle=1;align=center;resizeLast=1;fillColor=#dae8fc;strokeColor=#6c8ebf;" vertex="1" parent="1">
          <mxGeometry x="130" y="-60" width="160" height="90" as="geometry" />
        </mxCell>
        <mxCell id="88DA4RzG58VflkBBN9f2-120" value="" style="shape=partialRectangle;collapsible=0;dropTarget=0;pointerEvents=0;fillColor=#dae8fc;points=[[0,0.5],[1,0.5]];portConstraint=eastwest;top=0;left=0;right=0;bottom=1;strokeColor=#6c8ebf;" vertex="1" parent="88DA4RzG58VflkBBN9f2-119">
          <mxGeometry y="30" width="160" height="30" as="geometry" />
        </mxCell>
        <mxCell id="88DA4RzG58VflkBBN9f2-121" value="PK" style="shape=partialRectangle;overflow=hidden;connectable=0;fillColor=#dae8fc;top=0;left=0;bottom=0;right=0;fontStyle=1;strokeColor=#6c8ebf;" vertex="1" parent="88DA4RzG58VflkBBN9f2-120">
          <mxGeometry width="30" height="30" as="geometry" />
        </mxCell>
        <mxCell id="88DA4RzG58VflkBBN9f2-122" value="tag String NOT NULL " style="shape=partialRectangle;overflow=hidden;connectable=0;fillColor=#dae8fc;top=0;left=0;bottom=0;right=0;align=left;spacingLeft=6;fontStyle=5;strokeColor=#6c8ebf;" vertex="1" parent="88DA4RzG58VflkBBN9f2-120">
          <mxGeometry x="30" width="130" height="30" as="geometry" />
        </mxCell>
        <mxCell id="88DA4RzG58VflkBBN9f2-123" value="" style="shape=partialRectangle;collapsible=0;dropTarget=0;pointerEvents=0;fillColor=#dae8fc;points=[[0,0.5],[1,0.5]];portConstraint=eastwest;top=0;left=0;right=0;bottom=0;strokeColor=#6c8ebf;" vertex="1" parent="88DA4RzG58VflkBBN9f2-119">
          <mxGeometry y="60" width="160" height="30" as="geometry" />
        </mxCell>
        <mxCell id="88DA4RzG58VflkBBN9f2-124" value="" style="shape=partialRectangle;overflow=hidden;connectable=0;fillColor=#dae8fc;top=0;left=0;bottom=0;right=0;strokeColor=#6c8ebf;" vertex="1" parent="88DA4RzG58VflkBBN9f2-123">
          <mxGeometry width="30" height="30" as="geometry" />
        </mxCell>
        <mxCell id="88DA4RzG58VflkBBN9f2-125" value="" style="shape=partialRectangle;overflow=hidden;connectable=0;fillColor=#dae8fc;top=0;left=0;bottom=0;right=0;align=left;spacingLeft=6;strokeColor=#6c8ebf;" vertex="1" parent="88DA4RzG58VflkBBN9f2-123">
          <mxGeometry x="30" width="130" height="30" as="geometry" />
        </mxCell>
        <mxCell id="88DA4RzG58VflkBBN9f2-126" style="edgeStyle=none;rounded=0;orthogonalLoop=1;jettySize=auto;html=1;startArrow=ERmany;startFill=0;endArrow=ERmany;endFill=0;exitX=1.031;exitY=0.3;exitDx=0;exitDy=0;exitPerimeter=0;fillColor=#dae8fc;strokeColor=#6c8ebf;" edge="1" parent="1" source="88DA4RzG58VflkBBN9f2-120">
          <mxGeometry relative="1" as="geometry">
            <mxPoint x="370" y="-20" as="targetPoint" />
            <mxPoint x="290" y="-98.28571428571422" as="sourcePoint" />
          </mxGeometry>
        </mxCell>
        <mxCell id="88DA4RzG58VflkBBN9f2-132" style="edgeStyle=orthogonalEdgeStyle;rounded=0;orthogonalLoop=1;jettySize=auto;html=1;startArrow=ERzeroToMany;startFill=1;endArrow=ERone;endFill=0;strokeColor=#6c8ebf;fillColor=#dae8fc;" edge="1" parent="1" source="88DA4RzG58VflkBBN9f2-134" target="88DA4RzG58VflkBBN9f2-144">
          <mxGeometry relative="1" as="geometry">
            <Array as="points">
              <mxPoint x="1100" y="415" />
              <mxPoint x="1100" y="270" />
            </Array>
            <mxPoint x="1190" y="415" as="sourcePoint" />
            <mxPoint x="1030" y="270" as="targetPoint" />
          </mxGeometry>
        </mxCell>
        <mxCell id="88DA4RzG58VflkBBN9f2-133" value="subCategory" style="shape=table;startSize=30;container=1;collapsible=1;childLayout=tableLayout;fixedRows=1;rowLines=0;fontStyle=1;align=center;resizeLast=1;fillColor=#dae8fc;strokeColor=#6c8ebf;" vertex="1" parent="1">
          <mxGeometry x="1270" y="380" width="250" height="120" as="geometry" />
        </mxCell>
        <mxCell id="88DA4RzG58VflkBBN9f2-134" value="" style="shape=partialRectangle;collapsible=0;dropTarget=0;pointerEvents=0;fillColor=#dae8fc;points=[[0,0.5],[1,0.5]];portConstraint=eastwest;top=0;left=0;right=0;bottom=1;strokeColor=#6c8ebf;" vertex="1" parent="88DA4RzG58VflkBBN9f2-133">
          <mxGeometry y="30" width="250" height="30" as="geometry" />
        </mxCell>
        <mxCell id="88DA4RzG58VflkBBN9f2-135" value="PK" style="shape=partialRectangle;overflow=hidden;connectable=0;fillColor=#dae8fc;top=0;left=0;bottom=0;right=0;fontStyle=1;strokeColor=#6c8ebf;" vertex="1" parent="88DA4RzG58VflkBBN9f2-134">
          <mxGeometry width="30" height="30" as="geometry" />
        </mxCell>
        <mxCell id="88DA4RzG58VflkBBN9f2-136" value="subCategoryName String NOT NULL" style="shape=partialRectangle;overflow=hidden;connectable=0;fillColor=#dae8fc;top=0;left=0;bottom=0;right=0;align=left;spacingLeft=6;fontStyle=5;strokeColor=#6c8ebf;" vertex="1" parent="88DA4RzG58VflkBBN9f2-134">
          <mxGeometry x="30" width="220" height="30" as="geometry" />
        </mxCell>
        <mxCell id="88DA4RzG58VflkBBN9f2-137" value="" style="shape=partialRectangle;collapsible=0;dropTarget=0;pointerEvents=0;fillColor=#dae8fc;points=[[0,0.5],[1,0.5]];portConstraint=eastwest;top=0;left=0;right=0;bottom=0;strokeColor=#6c8ebf;" vertex="1" parent="88DA4RzG58VflkBBN9f2-133">
          <mxGeometry y="60" width="250" height="30" as="geometry" />
        </mxCell>
        <mxCell id="88DA4RzG58VflkBBN9f2-138" value="" style="shape=partialRectangle;overflow=hidden;connectable=0;fillColor=#dae8fc;top=0;left=0;bottom=0;right=0;strokeColor=#6c8ebf;" vertex="1" parent="88DA4RzG58VflkBBN9f2-137">
          <mxGeometry width="30" height="30" as="geometry" />
        </mxCell>
        <mxCell id="88DA4RzG58VflkBBN9f2-139" value="categoryName(String) NOT NULL" style="shape=partialRectangle;overflow=hidden;connectable=0;fillColor=#dae8fc;top=0;left=0;bottom=0;right=0;align=left;spacingLeft=6;strokeColor=#6c8ebf;" vertex="1" parent="88DA4RzG58VflkBBN9f2-137">
          <mxGeometry x="30" width="220" height="30" as="geometry" />
        </mxCell>
        <mxCell id="88DA4RzG58VflkBBN9f2-140" value="" style="shape=partialRectangle;collapsible=0;dropTarget=0;pointerEvents=0;fillColor=#dae8fc;points=[[0,0.5],[1,0.5]];portConstraint=eastwest;top=0;left=0;right=0;bottom=0;strokeColor=#6c8ebf;" vertex="1" parent="88DA4RzG58VflkBBN9f2-133">
          <mxGeometry y="90" width="250" height="30" as="geometry" />
        </mxCell>
        <mxCell id="88DA4RzG58VflkBBN9f2-141" value="" style="shape=partialRectangle;overflow=hidden;connectable=0;fillColor=#dae8fc;top=0;left=0;bottom=0;right=0;strokeColor=#6c8ebf;" vertex="1" parent="88DA4RzG58VflkBBN9f2-140">
          <mxGeometry width="30" height="30" as="geometry" />
        </mxCell>
        <mxCell id="88DA4RzG58VflkBBN9f2-142" value="categoryDescription(String) NOT NULL" style="shape=partialRectangle;overflow=hidden;connectable=0;fillColor=#dae8fc;top=0;left=0;bottom=0;right=0;align=left;spacingLeft=6;strokeColor=#6c8ebf;" vertex="1" parent="88DA4RzG58VflkBBN9f2-140">
          <mxGeometry x="30" width="220" height="30" as="geometry" />
        </mxCell>
        <mxCell id="88DA4RzG58VflkBBN9f2-143" value="category" style="shape=table;startSize=30;container=1;collapsible=1;childLayout=tableLayout;fixedRows=1;rowLines=0;fontStyle=1;align=center;resizeLast=1;fillColor=#dae8fc;strokeColor=#6c8ebf;" vertex="1" parent="1">
          <mxGeometry x="750" y="220" width="250" height="90" as="geometry" />
        </mxCell>
        <mxCell id="88DA4RzG58VflkBBN9f2-144" value="" style="shape=partialRectangle;collapsible=0;dropTarget=0;pointerEvents=0;fillColor=#dae8fc;points=[[0,0.5],[1,0.5]];portConstraint=eastwest;top=0;left=0;right=0;bottom=1;strokeColor=#6c8ebf;" vertex="1" parent="88DA4RzG58VflkBBN9f2-143">
          <mxGeometry y="30" width="250" height="30" as="geometry" />
        </mxCell>
        <mxCell id="88DA4RzG58VflkBBN9f2-145" value="PK" style="shape=partialRectangle;overflow=hidden;connectable=0;fillColor=#dae8fc;top=0;left=0;bottom=0;right=0;fontStyle=1;strokeColor=#6c8ebf;" vertex="1" parent="88DA4RzG58VflkBBN9f2-144">
          <mxGeometry width="30" height="30" as="geometry" />
        </mxCell>
        <mxCell id="88DA4RzG58VflkBBN9f2-146" value="categoryName String NOT NULL" style="shape=partialRectangle;overflow=hidden;connectable=0;fillColor=#dae8fc;top=0;left=0;bottom=0;right=0;align=left;spacingLeft=6;fontStyle=5;strokeColor=#6c8ebf;" vertex="1" parent="88DA4RzG58VflkBBN9f2-144">
          <mxGeometry x="30" width="220" height="30" as="geometry" />
        </mxCell>
        <mxCell id="88DA4RzG58VflkBBN9f2-147" value="" style="shape=partialRectangle;collapsible=0;dropTarget=0;pointerEvents=0;fillColor=#dae8fc;points=[[0,0.5],[1,0.5]];portConstraint=eastwest;top=0;left=0;right=0;bottom=0;strokeColor=#6c8ebf;" vertex="1" parent="88DA4RzG58VflkBBN9f2-143">
          <mxGeometry y="60" width="250" height="30" as="geometry" />
        </mxCell>
        <mxCell id="88DA4RzG58VflkBBN9f2-148" value="" style="shape=partialRectangle;overflow=hidden;connectable=0;fillColor=#dae8fc;top=0;left=0;bottom=0;right=0;strokeColor=#6c8ebf;" vertex="1" parent="88DA4RzG58VflkBBN9f2-147">
          <mxGeometry width="30" height="30" as="geometry" />
        </mxCell>
        <mxCell id="88DA4RzG58VflkBBN9f2-149" value="categoryDescription (String)" style="shape=partialRectangle;overflow=hidden;connectable=0;fillColor=#dae8fc;top=0;left=0;bottom=0;right=0;align=left;spacingLeft=6;strokeColor=#6c8ebf;" vertex="1" parent="88DA4RzG58VflkBBN9f2-147">
          <mxGeometry x="30" width="220" height="30" as="geometry" />
        </mxCell>
        <mxCell id="88DA4RzG58VflkBBN9f2-150" value="" style="group;fillColor=#dae8fc;strokeColor=#6c8ebf;" vertex="1" connectable="0" parent="1">
          <mxGeometry x="-220" y="140" width="248.39" height="350" as="geometry" />
        </mxCell>
        <mxCell id="88DA4RzG58VflkBBN9f2-151" value="promo" style="shape=table;startSize=30;container=1;collapsible=1;childLayout=tableLayout;fixedRows=1;rowLines=0;fontStyle=1;align=center;resizeLast=1;fillColor=#dae8fc;strokeColor=#6c8ebf;" vertex="1" parent="88DA4RzG58VflkBBN9f2-150">
          <mxGeometry width="248.39" height="350" as="geometry" />
        </mxCell>
        <mxCell id="88DA4RzG58VflkBBN9f2-152" value="" style="shape=partialRectangle;collapsible=0;dropTarget=0;pointerEvents=0;fillColor=#dae8fc;points=[[0,0.5],[1,0.5]];portConstraint=eastwest;top=0;left=0;right=0;bottom=1;strokeColor=#6c8ebf;" vertex="1" parent="88DA4RzG58VflkBBN9f2-151">
          <mxGeometry y="30" width="248.39" height="30" as="geometry" />
        </mxCell>
        <mxCell id="88DA4RzG58VflkBBN9f2-153" value="PK" style="shape=partialRectangle;overflow=hidden;connectable=0;fillColor=#dae8fc;top=0;left=0;bottom=0;right=0;fontStyle=1;strokeColor=#6c8ebf;" vertex="1" parent="88DA4RzG58VflkBBN9f2-152">
          <mxGeometry width="30" height="30" as="geometry" />
        </mxCell>
        <mxCell id="88DA4RzG58VflkBBN9f2-154" value="promoId String NOT NULL " style="shape=partialRectangle;overflow=hidden;connectable=0;fillColor=#dae8fc;top=0;left=0;bottom=0;right=0;align=left;spacingLeft=6;fontStyle=5;strokeColor=#6c8ebf;" vertex="1" parent="88DA4RzG58VflkBBN9f2-152">
          <mxGeometry x="30" width="218.39" height="30" as="geometry" />
        </mxCell>
        <mxCell id="88DA4RzG58VflkBBN9f2-155" value="" style="shape=partialRectangle;collapsible=0;dropTarget=0;pointerEvents=0;fillColor=#dae8fc;points=[[0,0.5],[1,0.5]];portConstraint=eastwest;top=0;left=0;right=0;bottom=0;strokeColor=#6c8ebf;" vertex="1" parent="88DA4RzG58VflkBBN9f2-151">
          <mxGeometry y="60" width="248.39" height="30" as="geometry" />
        </mxCell>
        <mxCell id="88DA4RzG58VflkBBN9f2-156" value="" style="shape=partialRectangle;overflow=hidden;connectable=0;fillColor=#dae8fc;top=0;left=0;bottom=0;right=0;strokeColor=#6c8ebf;" vertex="1" parent="88DA4RzG58VflkBBN9f2-155">
          <mxGeometry width="30" height="30" as="geometry" />
        </mxCell>
        <mxCell id="88DA4RzG58VflkBBN9f2-157" value="desc  String NOT NULL " style="shape=partialRectangle;overflow=hidden;connectable=0;fillColor=#dae8fc;top=0;left=0;bottom=0;right=0;align=left;spacingLeft=6;strokeColor=#6c8ebf;" vertex="1" parent="88DA4RzG58VflkBBN9f2-155">
          <mxGeometry x="30" width="218.39" height="30" as="geometry" />
        </mxCell>
        <mxCell id="88DA4RzG58VflkBBN9f2-158" value="" style="shape=partialRectangle;collapsible=0;dropTarget=0;pointerEvents=0;fillColor=#dae8fc;points=[[0,0.5],[1,0.5]];portConstraint=eastwest;top=0;left=0;right=0;bottom=0;strokeColor=#6c8ebf;" vertex="1" parent="88DA4RzG58VflkBBN9f2-151">
          <mxGeometry y="90" width="248.39" height="30" as="geometry" />
        </mxCell>
        <mxCell id="88DA4RzG58VflkBBN9f2-159" value="" style="shape=partialRectangle;overflow=hidden;connectable=0;fillColor=#dae8fc;top=0;left=0;bottom=0;right=0;strokeColor=#6c8ebf;" vertex="1" parent="88DA4RzG58VflkBBN9f2-158">
          <mxGeometry width="30" height="30" as="geometry" />
        </mxCell>
        <mxCell id="88DA4RzG58VflkBBN9f2-160" value="calc String NOT NULL" style="shape=partialRectangle;overflow=hidden;connectable=0;fillColor=#dae8fc;top=0;left=0;bottom=0;right=0;align=left;spacingLeft=6;strokeColor=#6c8ebf;" vertex="1" parent="88DA4RzG58VflkBBN9f2-158">
          <mxGeometry x="30" width="218.39" height="30" as="geometry" />
        </mxCell>
        <mxCell id="88DA4RzG58VflkBBN9f2-161" value="rate String NOT NULL" style="shape=partialRectangle;overflow=hidden;connectable=0;fillColor=#dae8fc;top=0;left=0;bottom=0;right=0;align=left;spacingLeft=6;strokeColor=#6c8ebf;" vertex="1" parent="88DA4RzG58VflkBBN9f2-150">
          <mxGeometry x="28.389999999999986" y="111" width="220" height="30" as="geometry" />
        </mxCell>
        <mxCell id="88DA4RzG58VflkBBN9f2-162" value="startDate Date NOT NULL" style="shape=partialRectangle;overflow=hidden;connectable=0;fillColor=#dae8fc;top=0;left=0;bottom=0;right=0;align=left;spacingLeft=6;strokeColor=#6c8ebf;" vertex="1" parent="88DA4RzG58VflkBBN9f2-150">
          <mxGeometry x="28.389999999999986" y="141" width="190" height="30" as="geometry" />
        </mxCell>
        <mxCell id="88DA4RzG58VflkBBN9f2-163" value="endDate Date NOT NULL" style="shape=partialRectangle;overflow=hidden;connectable=0;fillColor=#dae8fc;top=0;left=0;bottom=0;right=0;align=left;spacingLeft=6;strokeColor=#6c8ebf;" vertex="1" parent="88DA4RzG58VflkBBN9f2-150">
          <mxGeometry x="28.389999999999986" y="171" width="190" height="30" as="geometry" />
        </mxCell>
        <mxCell id="88DA4RzG58VflkBBN9f2-164" value="type String NOT NULL" style="shape=partialRectangle;overflow=hidden;connectable=0;fillColor=#dae8fc;top=0;left=0;bottom=0;right=0;align=left;spacingLeft=6;strokeColor=#6c8ebf;" vertex="1" parent="88DA4RzG58VflkBBN9f2-150">
          <mxGeometry x="28.389999999999986" y="201" width="190" height="30" as="geometry" />
        </mxCell>
        <mxCell id="88DA4RzG58VflkBBN9f2-165" value="appliedto String NOT NULL" style="shape=partialRectangle;overflow=hidden;connectable=0;fillColor=#dae8fc;top=0;left=0;bottom=0;right=0;align=left;spacingLeft=6;strokeColor=#6c8ebf;" vertex="1" parent="88DA4RzG58VflkBBN9f2-150">
          <mxGeometry x="28.39" y="231" width="171.61" height="30" as="geometry" />
        </mxCell>
        <mxCell id="88DA4RzG58VflkBBN9f2-166" value="isActive Boolean NOT NULL" style="shape=partialRectangle;overflow=hidden;connectable=0;fillColor=#dae8fc;top=0;left=0;bottom=0;right=0;align=left;spacingLeft=6;strokeColor=#6c8ebf;" vertex="1" parent="88DA4RzG58VflkBBN9f2-150">
          <mxGeometry x="28.389999999999986" y="261" width="190" height="30" as="geometry" />
        </mxCell>
        <mxCell id="88DA4RzG58VflkBBN9f2-167" style="edgeStyle=none;rounded=0;orthogonalLoop=1;jettySize=auto;html=1;startArrow=ERmany;startFill=0;endArrow=ERmany;endFill=0;entryX=0;entryY=0.5;entryDx=0;entryDy=0;fillColor=#dae8fc;strokeColor=#6c8ebf;" edge="1" parent="1" target="88DA4RzG58VflkBBN9f2-100">
          <mxGeometry relative="1" as="geometry">
            <mxPoint x="30" y="383" as="sourcePoint" />
            <Array as="points">
              <mxPoint x="90" y="383" />
              <mxPoint x="90" y="-135" />
            </Array>
            <mxPoint x="90" y="-140" as="targetPoint" />
          </mxGeometry>
        </mxCell>
        <mxCell id="88DA4RzG58VflkBBN9f2-168" style="edgeStyle=none;rounded=0;orthogonalLoop=1;jettySize=auto;html=1;startArrow=ERmany;startFill=0;endArrow=ERmany;endFill=0;exitX=0;exitY=0.5;exitDx=0;exitDy=0;entryX=1;entryY=0.75;entryDx=0;entryDy=0;fillColor=#dae8fc;strokeColor=#6c8ebf;" edge="1" parent="1" source="88DA4RzG58VflkBBN9f2-144">
          <mxGeometry relative="1" as="geometry">
            <mxPoint x="29.999999999999886" y="390" as="targetPoint" />
            <Array as="points">
              <mxPoint x="257" y="265" />
              <mxPoint x="257" y="390" />
              <mxPoint x="66.61000000000001" y="390.5" />
            </Array>
            <mxPoint x="635.61" y="520.8499999999999" as="sourcePoint" />
          </mxGeometry>
        </mxCell>
        <mxCell id="88DA4RzG58VflkBBN9f2-169" style="edgeStyle=none;rounded=0;orthogonalLoop=1;jettySize=auto;html=1;entryX=1;entryY=0.5;entryDx=0;entryDy=0;startArrow=ERone;startFill=0;endArrow=ERmany;endFill=0;exitX=0;exitY=0.5;exitDx=0;exitDy=0;fillColor=#dae8fc;strokeColor=#6c8ebf;" edge="1" parent="1" source="88DA4RzG58VflkBBN9f2-147">
          <mxGeometry relative="1" as="geometry">
            <mxPoint x="740" y="245" as="sourcePoint" />
            <Array as="points">
              <mxPoint x="660" y="295" />
              <mxPoint x="660" y="75" />
              <mxPoint x="660" y="5" />
              <mxPoint x="660" y="-110" />
            </Array>
            <mxPoint x="617.06" y="-110" as="targetPoint" />
          </mxGeometry>
        </mxCell>
        <mxCell id="88DA4RzG58VflkBBN9f2-170" value="stock" style="shape=table;startSize=30;container=1;collapsible=1;childLayout=tableLayout;fixedRows=1;rowLines=0;fontStyle=1;align=center;resizeLast=1;fillColor=#dae8fc;strokeColor=#6c8ebf;" vertex="1" parent="1">
          <mxGeometry x="-340" y="-290" width="250" height="120" as="geometry" />
        </mxCell>
        <mxCell id="88DA4RzG58VflkBBN9f2-171" value="" style="shape=partialRectangle;collapsible=0;dropTarget=0;pointerEvents=0;fillColor=#dae8fc;points=[[0,0.5],[1,0.5]];portConstraint=eastwest;top=0;left=0;right=0;bottom=1;strokeColor=#6c8ebf;" vertex="1" parent="88DA4RzG58VflkBBN9f2-170">
          <mxGeometry y="30" width="250" height="30" as="geometry" />
        </mxCell>
        <mxCell id="88DA4RzG58VflkBBN9f2-172" value="FK" style="shape=partialRectangle;overflow=hidden;connectable=0;fillColor=#dae8fc;top=0;left=0;bottom=0;right=0;fontStyle=1;strokeColor=#6c8ebf;" vertex="1" parent="88DA4RzG58VflkBBN9f2-171">
          <mxGeometry width="30" height="30" as="geometry" />
        </mxCell>
        <mxCell id="88DA4RzG58VflkBBN9f2-173" value="branchCode  String  NOT NULL " style="shape=partialRectangle;overflow=hidden;connectable=0;fillColor=#dae8fc;top=0;left=0;bottom=0;right=0;align=left;spacingLeft=6;fontStyle=5;strokeColor=#6c8ebf;" vertex="1" parent="88DA4RzG58VflkBBN9f2-171">
          <mxGeometry x="30" width="220" height="30" as="geometry" />
        </mxCell>
        <mxCell id="88DA4RzG58VflkBBN9f2-174" value="" style="shape=partialRectangle;collapsible=0;dropTarget=0;pointerEvents=0;fillColor=#dae8fc;points=[[0,0.5],[1,0.5]];portConstraint=eastwest;top=0;left=0;right=0;bottom=0;strokeColor=#6c8ebf;" vertex="1" parent="88DA4RzG58VflkBBN9f2-170">
          <mxGeometry y="60" width="250" height="30" as="geometry" />
        </mxCell>
        <mxCell id="88DA4RzG58VflkBBN9f2-175" value="FK" style="shape=partialRectangle;overflow=hidden;connectable=0;fillColor=#dae8fc;top=0;left=0;bottom=0;right=0;strokeColor=#6c8ebf;" vertex="1" parent="88DA4RzG58VflkBBN9f2-174">
          <mxGeometry width="30" height="30" as="geometry" />
        </mxCell>
        <mxCell id="88DA4RzG58VflkBBN9f2-176" value="item String   NOT NULL" style="shape=partialRectangle;overflow=hidden;connectable=0;fillColor=#dae8fc;top=0;left=0;bottom=0;right=0;align=left;spacingLeft=6;strokeColor=#6c8ebf;" vertex="1" parent="88DA4RzG58VflkBBN9f2-174">
          <mxGeometry x="30" width="220" height="30" as="geometry" />
        </mxCell>
        <mxCell id="88DA4RzG58VflkBBN9f2-177" value="" style="shape=partialRectangle;collapsible=0;dropTarget=0;pointerEvents=0;fillColor=#dae8fc;points=[[0,0.5],[1,0.5]];portConstraint=eastwest;top=0;left=0;right=0;bottom=0;strokeColor=#6c8ebf;" vertex="1" parent="88DA4RzG58VflkBBN9f2-170">
          <mxGeometry y="90" width="250" height="30" as="geometry" />
        </mxCell>
        <mxCell id="88DA4RzG58VflkBBN9f2-178" value="" style="shape=partialRectangle;overflow=hidden;connectable=0;fillColor=#dae8fc;top=0;left=0;bottom=0;right=0;strokeColor=#6c8ebf;" vertex="1" parent="88DA4RzG58VflkBBN9f2-177">
          <mxGeometry width="30" height="30" as="geometry" />
        </mxCell>
        <mxCell id="88DA4RzG58VflkBBN9f2-179" value="currentStock  int   NOT NULL" style="shape=partialRectangle;overflow=hidden;connectable=0;fillColor=#dae8fc;top=0;left=0;bottom=0;right=0;align=left;spacingLeft=6;strokeColor=#6c8ebf;" vertex="1" parent="88DA4RzG58VflkBBN9f2-177">
          <mxGeometry x="30" width="220" height="30" as="geometry" />
        </mxCell>
        <mxCell id="88DA4RzG58VflkBBN9f2-180" value="branch" style="shape=table;startSize=30;container=1;collapsible=1;childLayout=tableLayout;fixedRows=1;rowLines=0;fontStyle=1;align=center;resizeLast=1;fillColor=#dae8fc;strokeColor=#6c8ebf;" vertex="1" parent="1">
          <mxGeometry x="-780" y="-170" width="255" height="190" as="geometry" />
        </mxCell>
        <mxCell id="88DA4RzG58VflkBBN9f2-181" value="" style="shape=partialRectangle;collapsible=0;dropTarget=0;pointerEvents=0;fillColor=#dae8fc;points=[[0,0.5],[1,0.5]];portConstraint=eastwest;top=0;left=0;right=0;bottom=1;strokeColor=#6c8ebf;" vertex="1" parent="88DA4RzG58VflkBBN9f2-180">
          <mxGeometry y="30" width="255" height="30" as="geometry" />
        </mxCell>
        <mxCell id="88DA4RzG58VflkBBN9f2-182" value="PK" style="shape=partialRectangle;overflow=hidden;connectable=0;fillColor=#dae8fc;top=0;left=0;bottom=0;right=0;fontStyle=1;strokeColor=#6c8ebf;" vertex="1" parent="88DA4RzG58VflkBBN9f2-181">
          <mxGeometry width="30" height="30" as="geometry" />
        </mxCell>
        <mxCell id="88DA4RzG58VflkBBN9f2-183" value="branchCode String NOT NULL " style="shape=partialRectangle;overflow=hidden;connectable=0;fillColor=#dae8fc;top=0;left=0;bottom=0;right=0;align=left;spacingLeft=6;fontStyle=5;strokeColor=#6c8ebf;" vertex="1" parent="88DA4RzG58VflkBBN9f2-181">
          <mxGeometry x="30" width="225" height="30" as="geometry" />
        </mxCell>
        <mxCell id="88DA4RzG58VflkBBN9f2-184" value="" style="shape=partialRectangle;collapsible=0;dropTarget=0;pointerEvents=0;fillColor=#dae8fc;points=[[0,0.5],[1,0.5]];portConstraint=eastwest;top=0;left=0;right=0;bottom=0;strokeColor=#6c8ebf;" vertex="1" parent="88DA4RzG58VflkBBN9f2-180">
          <mxGeometry y="60" width="255" height="30" as="geometry" />
        </mxCell>
        <mxCell id="88DA4RzG58VflkBBN9f2-185" value="" style="shape=partialRectangle;overflow=hidden;connectable=0;fillColor=#dae8fc;top=0;left=0;bottom=0;right=0;strokeColor=#6c8ebf;" vertex="1" parent="88DA4RzG58VflkBBN9f2-184">
          <mxGeometry width="30" height="30" as="geometry" />
        </mxCell>
        <mxCell id="88DA4RzG58VflkBBN9f2-186" value="branchName String NOT NULL" style="shape=partialRectangle;overflow=hidden;connectable=0;fillColor=#dae8fc;top=0;left=0;bottom=0;right=0;align=left;spacingLeft=6;strokeColor=#6c8ebf;" vertex="1" parent="88DA4RzG58VflkBBN9f2-184">
          <mxGeometry x="30" width="225" height="30" as="geometry" />
        </mxCell>
        <mxCell id="88DA4RzG58VflkBBN9f2-187" value="" style="shape=partialRectangle;collapsible=0;dropTarget=0;pointerEvents=0;fillColor=#dae8fc;points=[[0,0.5],[1,0.5]];portConstraint=eastwest;top=0;left=0;right=0;bottom=0;strokeColor=#6c8ebf;" vertex="1" parent="88DA4RzG58VflkBBN9f2-180">
          <mxGeometry y="90" width="255" height="30" as="geometry" />
        </mxCell>
        <mxCell id="88DA4RzG58VflkBBN9f2-188" value="" style="shape=partialRectangle;overflow=hidden;connectable=0;fillColor=#dae8fc;top=0;left=0;bottom=0;right=0;strokeColor=#6c8ebf;" vertex="1" parent="88DA4RzG58VflkBBN9f2-187">
          <mxGeometry width="30" height="30" as="geometry" />
        </mxCell>
        <mxCell id="88DA4RzG58VflkBBN9f2-189" value="branchAddress String NOT NULL" style="shape=partialRectangle;overflow=hidden;connectable=0;fillColor=#dae8fc;top=0;left=0;bottom=0;right=0;align=left;spacingLeft=6;strokeColor=#6c8ebf;" vertex="1" parent="88DA4RzG58VflkBBN9f2-187">
          <mxGeometry x="30" width="225" height="30" as="geometry" />
        </mxCell>
        <mxCell id="88DA4RzG58VflkBBN9f2-190" value="" style="shape=partialRectangle;collapsible=0;dropTarget=0;pointerEvents=0;fillColor=#dae8fc;points=[[0,0.5],[1,0.5]];portConstraint=eastwest;top=0;left=0;right=0;bottom=0;strokeColor=#6c8ebf;" vertex="1" parent="88DA4RzG58VflkBBN9f2-180">
          <mxGeometry y="120" width="255" height="30" as="geometry" />
        </mxCell>
        <mxCell id="88DA4RzG58VflkBBN9f2-191" value="" style="shape=partialRectangle;overflow=hidden;connectable=0;fillColor=#dae8fc;top=0;left=0;bottom=0;right=0;strokeColor=#6c8ebf;" vertex="1" parent="88DA4RzG58VflkBBN9f2-190">
          <mxGeometry width="30" height="30" as="geometry" />
        </mxCell>
        <mxCell id="88DA4RzG58VflkBBN9f2-192" value="branchPhone String NOT NULL" style="shape=partialRectangle;overflow=hidden;connectable=0;fillColor=#dae8fc;top=0;left=0;bottom=0;right=0;align=left;spacingLeft=6;strokeColor=#6c8ebf;" vertex="1" parent="88DA4RzG58VflkBBN9f2-190">
          <mxGeometry x="30" width="225" height="30" as="geometry" />
        </mxCell>
        <mxCell id="88DA4RzG58VflkBBN9f2-193" value="" style="shape=partialRectangle;collapsible=0;dropTarget=0;pointerEvents=0;fillColor=#dae8fc;points=[[0,0.5],[1,0.5]];portConstraint=eastwest;top=0;left=0;right=0;bottom=0;strokeColor=#6c8ebf;" vertex="1" parent="88DA4RzG58VflkBBN9f2-180">
          <mxGeometry y="150" width="255" height="30" as="geometry" />
        </mxCell>
        <mxCell id="88DA4RzG58VflkBBN9f2-194" value="" style="shape=partialRectangle;overflow=hidden;connectable=0;fillColor=#dae8fc;top=0;left=0;bottom=0;right=0;strokeColor=#6c8ebf;" vertex="1" parent="88DA4RzG58VflkBBN9f2-193">
          <mxGeometry width="30" height="30" as="geometry" />
        </mxCell>
        <mxCell id="88DA4RzG58VflkBBN9f2-195" value="isActive Boolean NOT NULL" style="shape=partialRectangle;overflow=hidden;connectable=0;fillColor=#dae8fc;top=0;left=0;bottom=0;right=0;align=left;spacingLeft=6;strokeColor=#6c8ebf;" vertex="1" parent="88DA4RzG58VflkBBN9f2-193">
          <mxGeometry x="30" width="225" height="30" as="geometry" />
        </mxCell>
        <mxCell id="88DA4RzG58VflkBBN9f2-196" style="edgeStyle=none;rounded=0;orthogonalLoop=1;jettySize=auto;html=1;startArrow=ERmany;startFill=0;endArrow=ERone;endFill=0;exitX=0;exitY=0.5;exitDx=0;exitDy=0;entryX=1;entryY=0.5;entryDx=0;entryDy=0;fillColor=#dae8fc;strokeColor=#6c8ebf;" edge="1" parent="1" source="88DA4RzG58VflkBBN9f2-100">
          <mxGeometry relative="1" as="geometry">
            <mxPoint x="-88.64999999999998" y="-220" as="targetPoint" />
            <mxPoint x="28.38528000000008" y="-91.01000000000022" as="sourcePoint" />
            <Array as="points">
              <mxPoint x="1" y="-135" />
              <mxPoint x="1.3500000000000227" y="-220" />
            </Array>
          </mxGeometry>
        </mxCell>
        <mxCell id="88DA4RzG58VflkBBN9f2-197" style="edgeStyle=none;rounded=0;orthogonalLoop=1;jettySize=auto;html=1;entryX=1;entryY=0.5;entryDx=0;entryDy=0;startArrow=ERmany;startFill=0;endArrow=ERone;endFill=0;exitX=0;exitY=0.5;exitDx=0;exitDy=0;fillColor=#dae8fc;strokeColor=#6c8ebf;" edge="1" parent="1" source="88DA4RzG58VflkBBN9f2-171" target="88DA4RzG58VflkBBN9f2-181">
          <mxGeometry relative="1" as="geometry">
            <Array as="points">
              <mxPoint x="-390" y="-245" />
              <mxPoint x="-390" y="-125" />
            </Array>
            <mxPoint x="-355" y="-242.5" as="sourcePoint" />
            <mxPoint x="-650" y="-330" as="targetPoint" />
          </mxGeometry>
        </mxCell>
        <mxCell id="88DA4RzG58VflkBBN9f2-198" value="sysUser" style="shape=table;startSize=30;container=1;collapsible=1;childLayout=tableLayout;fixedRows=1;rowLines=0;fontStyle=1;align=center;resizeLast=1;fillColor=#dae8fc;strokeColor=#6c8ebf;" vertex="1" parent="1">
          <mxGeometry x="-140" y="-930" width="250" height="150" as="geometry" />
        </mxCell>
        <mxCell id="88DA4RzG58VflkBBN9f2-199" value="" style="shape=partialRectangle;collapsible=0;dropTarget=0;pointerEvents=0;fillColor=#dae8fc;points=[[0,0.5],[1,0.5]];portConstraint=eastwest;top=0;left=0;right=0;bottom=1;strokeColor=#6c8ebf;" vertex="1" parent="88DA4RzG58VflkBBN9f2-198">
          <mxGeometry y="30" width="250" height="30" as="geometry" />
        </mxCell>
        <mxCell id="88DA4RzG58VflkBBN9f2-200" value="PK" style="shape=partialRectangle;overflow=hidden;connectable=0;fillColor=#dae8fc;top=0;left=0;bottom=0;right=0;fontStyle=1;strokeColor=#6c8ebf;" vertex="1" parent="88DA4RzG58VflkBBN9f2-199">
          <mxGeometry width="30" height="30" as="geometry" />
        </mxCell>
        <mxCell id="88DA4RzG58VflkBBN9f2-201" value="sysUserId String NOT NULL" style="shape=partialRectangle;overflow=hidden;connectable=0;fillColor=#dae8fc;top=0;left=0;bottom=0;right=0;align=left;spacingLeft=6;fontStyle=5;strokeColor=#6c8ebf;" vertex="1" parent="88DA4RzG58VflkBBN9f2-199">
          <mxGeometry x="30" width="220" height="30" as="geometry" />
        </mxCell>
        <mxCell id="88DA4RzG58VflkBBN9f2-202" value="" style="shape=partialRectangle;collapsible=0;dropTarget=0;pointerEvents=0;fillColor=#dae8fc;points=[[0,0.5],[1,0.5]];portConstraint=eastwest;top=0;left=0;right=0;bottom=0;strokeColor=#6c8ebf;" vertex="1" parent="88DA4RzG58VflkBBN9f2-198">
          <mxGeometry y="60" width="250" height="30" as="geometry" />
        </mxCell>
        <mxCell id="88DA4RzG58VflkBBN9f2-203" value="" style="shape=partialRectangle;overflow=hidden;connectable=0;fillColor=#dae8fc;top=0;left=0;bottom=0;right=0;strokeColor=#6c8ebf;" vertex="1" parent="88DA4RzG58VflkBBN9f2-202">
          <mxGeometry width="30" height="30" as="geometry" />
        </mxCell>
        <mxCell id="88DA4RzG58VflkBBN9f2-204" value="sysUserName (String) NOT NULL" style="shape=partialRectangle;overflow=hidden;connectable=0;fillColor=#dae8fc;top=0;left=0;bottom=0;right=0;align=left;spacingLeft=6;strokeColor=#6c8ebf;" vertex="1" parent="88DA4RzG58VflkBBN9f2-202">
          <mxGeometry x="30" width="220" height="30" as="geometry" />
        </mxCell>
        <mxCell id="88DA4RzG58VflkBBN9f2-205" value="" style="shape=partialRectangle;collapsible=0;dropTarget=0;pointerEvents=0;fillColor=#dae8fc;points=[[0,0.5],[1,0.5]];portConstraint=eastwest;top=0;left=0;right=0;bottom=0;strokeColor=#6c8ebf;" vertex="1" parent="88DA4RzG58VflkBBN9f2-198">
          <mxGeometry y="90" width="250" height="30" as="geometry" />
        </mxCell>
        <mxCell id="88DA4RzG58VflkBBN9f2-206" value="" style="shape=partialRectangle;overflow=hidden;connectable=0;fillColor=#dae8fc;top=0;left=0;bottom=0;right=0;strokeColor=#6c8ebf;" vertex="1" parent="88DA4RzG58VflkBBN9f2-205">
          <mxGeometry width="30" height="30" as="geometry" />
        </mxCell>
        <mxCell id="88DA4RzG58VflkBBN9f2-207" value="password(String) NOT NULL" style="shape=partialRectangle;overflow=hidden;connectable=0;fillColor=#dae8fc;top=0;left=0;bottom=0;right=0;align=left;spacingLeft=6;strokeColor=#6c8ebf;" vertex="1" parent="88DA4RzG58VflkBBN9f2-205">
          <mxGeometry x="30" width="220" height="30" as="geometry" />
        </mxCell>
        <mxCell id="88DA4RzG58VflkBBN9f2-208" value="" style="shape=partialRectangle;collapsible=0;dropTarget=0;pointerEvents=0;fillColor=#dae8fc;points=[[0,0.5],[1,0.5]];portConstraint=eastwest;top=0;left=0;right=0;bottom=0;strokeColor=#6c8ebf;" vertex="1" parent="88DA4RzG58VflkBBN9f2-198">
          <mxGeometry y="120" width="250" height="30" as="geometry" />
        </mxCell>
        <mxCell id="88DA4RzG58VflkBBN9f2-209" value="" style="shape=partialRectangle;overflow=hidden;connectable=0;fillColor=#dae8fc;top=0;left=0;bottom=0;right=0;strokeColor=#6c8ebf;" vertex="1" parent="88DA4RzG58VflkBBN9f2-208">
          <mxGeometry width="30" height="30" as="geometry" />
        </mxCell>
        <mxCell id="88DA4RzG58VflkBBN9f2-210" value="contactNumber(String) NOT NULL" style="shape=partialRectangle;overflow=hidden;connectable=0;fillColor=#dae8fc;top=0;left=0;bottom=0;right=0;align=left;spacingLeft=6;strokeColor=#6c8ebf;" vertex="1" parent="88DA4RzG58VflkBBN9f2-208">
          <mxGeometry x="30" width="220" height="30" as="geometry" />
        </mxCell>
        <mxCell id="88DA4RzG58VflkBBN9f2-211" style="edgeStyle=none;rounded=0;orthogonalLoop=1;jettySize=auto;html=1;startArrow=ERmany;startFill=0;endArrow=ERone;endFill=0;fillColor=#dae8fc;strokeColor=#6c8ebf;" edge="1" parent="1" source="88DA4RzG58VflkBBN9f2-24" target="88DA4RzG58VflkBBN9f2-199">
          <mxGeometry relative="1" as="geometry">
            <mxPoint x="273" y="-610" as="sourcePoint" />
            <Array as="points">
              <mxPoint x="220" y="-570" />
              <mxPoint x="220" y="-885" />
            </Array>
            <mxPoint x="180" y="-870" as="targetPoint" />
          </mxGeometry>
        </mxCell>
        <mxCell id="88DA4RzG58VflkBBN9f2-225" style="edgeStyle=orthogonalEdgeStyle;rounded=0;orthogonalLoop=1;jettySize=auto;html=1;entryX=0;entryY=0.041;entryDx=0;entryDy=0;entryPerimeter=0;startArrow=none;startFill=0;endArrow=none;endFill=0;strokeColor=#b85450;exitX=1;exitY=0.5;exitDx=0;exitDy=0;fillColor=#f8cecc;" edge="1" parent="1" source="88DA4RzG58VflkBBN9f2-230" target="88DA4RzG58VflkBBN9f2-256">
          <mxGeometry relative="1" as="geometry" />
        </mxCell>
        <mxCell id="88DA4RzG58VflkBBN9f2-226" value="module" style="shape=table;startSize=30;container=1;collapsible=1;childLayout=tableLayout;fixedRows=1;rowLines=0;fontStyle=1;align=center;resizeLast=1;fillColor=#f8cecc;strokeColor=#b85450;" vertex="1" parent="1">
          <mxGeometry x="-681.03" y="-1295" width="250" height="150" as="geometry" />
        </mxCell>
        <mxCell id="88DA4RzG58VflkBBN9f2-227" value="" style="shape=partialRectangle;collapsible=0;dropTarget=0;pointerEvents=0;fillColor=#f8cecc;points=[[0,0.5],[1,0.5]];portConstraint=eastwest;top=0;left=0;right=0;bottom=1;strokeColor=#b85450;" vertex="1" parent="88DA4RzG58VflkBBN9f2-226">
          <mxGeometry y="30" width="250" height="30" as="geometry" />
        </mxCell>
        <mxCell id="88DA4RzG58VflkBBN9f2-228" value="PK" style="shape=partialRectangle;overflow=hidden;connectable=0;fillColor=#f8cecc;top=0;left=0;bottom=0;right=0;fontStyle=1;strokeColor=#b85450;" vertex="1" parent="88DA4RzG58VflkBBN9f2-227">
          <mxGeometry width="30" height="30" as="geometry" />
        </mxCell>
        <mxCell id="88DA4RzG58VflkBBN9f2-229" value="moduleNameString NOT NULL" style="shape=partialRectangle;overflow=hidden;connectable=0;fillColor=#f8cecc;top=0;left=0;bottom=0;right=0;align=left;spacingLeft=6;fontStyle=5;strokeColor=#b85450;" vertex="1" parent="88DA4RzG58VflkBBN9f2-227">
          <mxGeometry x="30" width="220" height="30" as="geometry" />
        </mxCell>
        <mxCell id="88DA4RzG58VflkBBN9f2-230" value="" style="shape=partialRectangle;collapsible=0;dropTarget=0;pointerEvents=0;fillColor=#f8cecc;points=[[0,0.5],[1,0.5]];portConstraint=eastwest;top=0;left=0;right=0;bottom=0;strokeColor=#b85450;" vertex="1" parent="88DA4RzG58VflkBBN9f2-226">
          <mxGeometry y="60" width="250" height="30" as="geometry" />
        </mxCell>
        <mxCell id="88DA4RzG58VflkBBN9f2-231" value="" style="shape=partialRectangle;overflow=hidden;connectable=0;fillColor=#f8cecc;top=0;left=0;bottom=0;right=0;strokeColor=#b85450;" vertex="1" parent="88DA4RzG58VflkBBN9f2-230">
          <mxGeometry width="30" height="30" as="geometry" />
        </mxCell>
        <mxCell id="88DA4RzG58VflkBBN9f2-232" value="moduletype(String) NOT NULL" style="shape=partialRectangle;overflow=hidden;connectable=0;fillColor=#f8cecc;top=0;left=0;bottom=0;right=0;align=left;spacingLeft=6;strokeColor=#b85450;" vertex="1" parent="88DA4RzG58VflkBBN9f2-230">
          <mxGeometry x="30" width="220" height="30" as="geometry" />
        </mxCell>
        <mxCell id="88DA4RzG58VflkBBN9f2-233" value="" style="shape=partialRectangle;collapsible=0;dropTarget=0;pointerEvents=0;fillColor=#f8cecc;points=[[0,0.5],[1,0.5]];portConstraint=eastwest;top=0;left=0;right=0;bottom=0;strokeColor=#b85450;" vertex="1" parent="88DA4RzG58VflkBBN9f2-226">
          <mxGeometry y="90" width="250" height="30" as="geometry" />
        </mxCell>
        <mxCell id="88DA4RzG58VflkBBN9f2-234" value="FK" style="shape=partialRectangle;overflow=hidden;connectable=0;fillColor=#f8cecc;top=0;left=0;bottom=0;right=0;strokeColor=#b85450;" vertex="1" parent="88DA4RzG58VflkBBN9f2-233">
          <mxGeometry width="30" height="30" as="geometry" />
        </mxCell>
        <mxCell id="88DA4RzG58VflkBBN9f2-235" value="organizationId (String) NOT NULL" style="shape=partialRectangle;overflow=hidden;connectable=0;fillColor=#f8cecc;top=0;left=0;bottom=0;right=0;align=left;spacingLeft=6;strokeColor=#b85450;" vertex="1" parent="88DA4RzG58VflkBBN9f2-233">
          <mxGeometry x="30" width="220" height="30" as="geometry" />
        </mxCell>
        <mxCell id="88DA4RzG58VflkBBN9f2-236" value="" style="shape=partialRectangle;collapsible=0;dropTarget=0;pointerEvents=0;fillColor=#f8cecc;points=[[0,0.5],[1,0.5]];portConstraint=eastwest;top=0;left=0;right=0;bottom=0;strokeColor=#b85450;" vertex="1" parent="88DA4RzG58VflkBBN9f2-226">
          <mxGeometry y="120" width="250" height="30" as="geometry" />
        </mxCell>
        <mxCell id="88DA4RzG58VflkBBN9f2-237" value="" style="shape=partialRectangle;overflow=hidden;connectable=0;fillColor=#f8cecc;top=0;left=0;bottom=0;right=0;strokeColor=#b85450;" vertex="1" parent="88DA4RzG58VflkBBN9f2-236">
          <mxGeometry width="30" height="30" as="geometry" />
        </mxCell>
        <mxCell id="88DA4RzG58VflkBBN9f2-238" value="moduleDescription (String) NOT NULL" style="shape=partialRectangle;overflow=hidden;connectable=0;fillColor=#f8cecc;top=0;left=0;bottom=0;right=0;align=left;spacingLeft=6;strokeColor=#b85450;" vertex="1" parent="88DA4RzG58VflkBBN9f2-236">
          <mxGeometry x="30" width="220" height="30" as="geometry" />
        </mxCell>
        <mxCell id="88DA4RzG58VflkBBN9f2-239" value="organization" style="shape=table;startSize=30;container=1;collapsible=1;childLayout=tableLayout;fixedRows=1;rowLines=0;fontStyle=1;align=center;resizeLast=1;fillColor=#f8cecc;strokeColor=#b85450;" vertex="1" parent="1">
          <mxGeometry x="-1030" y="-1090" width="250" height="180" as="geometry" />
        </mxCell>
        <mxCell id="88DA4RzG58VflkBBN9f2-240" value="" style="shape=partialRectangle;collapsible=0;dropTarget=0;pointerEvents=0;fillColor=#f8cecc;points=[[0,0.5],[1,0.5]];portConstraint=eastwest;top=0;left=0;right=0;bottom=1;strokeColor=#b85450;" vertex="1" parent="88DA4RzG58VflkBBN9f2-239">
          <mxGeometry y="30" width="250" height="30" as="geometry" />
        </mxCell>
        <mxCell id="88DA4RzG58VflkBBN9f2-241" value="PK" style="shape=partialRectangle;overflow=hidden;connectable=0;fillColor=#f8cecc;top=0;left=0;bottom=0;right=0;fontStyle=1;strokeColor=#b85450;" vertex="1" parent="88DA4RzG58VflkBBN9f2-240">
          <mxGeometry width="30" height="30" as="geometry" />
        </mxCell>
        <mxCell id="88DA4RzG58VflkBBN9f2-242" value="organizationId String NOT NULL" style="shape=partialRectangle;overflow=hidden;connectable=0;fillColor=#f8cecc;top=0;left=0;bottom=0;right=0;align=left;spacingLeft=6;fontStyle=5;strokeColor=#b85450;" vertex="1" parent="88DA4RzG58VflkBBN9f2-240">
          <mxGeometry x="30" width="220" height="30" as="geometry" />
        </mxCell>
        <mxCell id="88DA4RzG58VflkBBN9f2-243" value="" style="shape=partialRectangle;collapsible=0;dropTarget=0;pointerEvents=0;fillColor=#f8cecc;points=[[0,0.5],[1,0.5]];portConstraint=eastwest;top=0;left=0;right=0;bottom=0;strokeColor=#b85450;" vertex="1" parent="88DA4RzG58VflkBBN9f2-239">
          <mxGeometry y="60" width="250" height="30" as="geometry" />
        </mxCell>
        <mxCell id="88DA4RzG58VflkBBN9f2-244" value="" style="shape=partialRectangle;overflow=hidden;connectable=0;fillColor=#f8cecc;top=0;left=0;bottom=0;right=0;strokeColor=#b85450;" vertex="1" parent="88DA4RzG58VflkBBN9f2-243">
          <mxGeometry width="30" height="30" as="geometry" />
        </mxCell>
        <mxCell id="88DA4RzG58VflkBBN9f2-245" value="gneeferUserId (String) NOT NULL" style="shape=partialRectangle;overflow=hidden;connectable=0;fillColor=#f8cecc;top=0;left=0;bottom=0;right=0;align=left;spacingLeft=6;strokeColor=#b85450;" vertex="1" parent="88DA4RzG58VflkBBN9f2-243">
          <mxGeometry x="30" width="220" height="30" as="geometry" />
        </mxCell>
        <mxCell id="88DA4RzG58VflkBBN9f2-246" value="" style="shape=partialRectangle;collapsible=0;dropTarget=0;pointerEvents=0;fillColor=#f8cecc;points=[[0,0.5],[1,0.5]];portConstraint=eastwest;top=0;left=0;right=0;bottom=0;strokeColor=#b85450;" vertex="1" parent="88DA4RzG58VflkBBN9f2-239">
          <mxGeometry y="90" width="250" height="30" as="geometry" />
        </mxCell>
        <mxCell id="88DA4RzG58VflkBBN9f2-247" value="" style="shape=partialRectangle;overflow=hidden;connectable=0;fillColor=#f8cecc;top=0;left=0;bottom=0;right=0;strokeColor=#b85450;" vertex="1" parent="88DA4RzG58VflkBBN9f2-246">
          <mxGeometry width="30" height="30" as="geometry" />
        </mxCell>
        <mxCell id="88DA4RzG58VflkBBN9f2-248" value="sysUserId(String) NOT NULL" style="shape=partialRectangle;overflow=hidden;connectable=0;fillColor=#f8cecc;top=0;left=0;bottom=0;right=0;align=left;spacingLeft=6;strokeColor=#b85450;" vertex="1" parent="88DA4RzG58VflkBBN9f2-246">
          <mxGeometry x="30" width="220" height="30" as="geometry" />
        </mxCell>
        <mxCell id="88DA4RzG58VflkBBN9f2-249" value="" style="shape=partialRectangle;collapsible=0;dropTarget=0;pointerEvents=0;fillColor=#f8cecc;points=[[0,0.5],[1,0.5]];portConstraint=eastwest;top=0;left=0;right=0;bottom=0;strokeColor=#b85450;" vertex="1" parent="88DA4RzG58VflkBBN9f2-239">
          <mxGeometry y="120" width="250" height="30" as="geometry" />
        </mxCell>
        <mxCell id="88DA4RzG58VflkBBN9f2-250" value="" style="shape=partialRectangle;overflow=hidden;connectable=0;fillColor=#f8cecc;top=0;left=0;bottom=0;right=0;strokeColor=#b85450;" vertex="1" parent="88DA4RzG58VflkBBN9f2-249">
          <mxGeometry width="30" height="30" as="geometry" />
        </mxCell>
        <mxCell id="88DA4RzG58VflkBBN9f2-251" value="organizationName (String) NOT NULL" style="shape=partialRectangle;overflow=hidden;connectable=0;fillColor=#f8cecc;top=0;left=0;bottom=0;right=0;align=left;spacingLeft=6;strokeColor=#b85450;" vertex="1" parent="88DA4RzG58VflkBBN9f2-249">
          <mxGeometry x="30" width="220" height="30" as="geometry" />
        </mxCell>
        <mxCell id="88DA4RzG58VflkBBN9f2-252" value="" style="shape=partialRectangle;collapsible=0;dropTarget=0;pointerEvents=0;fillColor=#f8cecc;points=[[0,0.5],[1,0.5]];portConstraint=eastwest;top=0;left=0;right=0;bottom=0;strokeColor=#b85450;" vertex="1" parent="88DA4RzG58VflkBBN9f2-239">
          <mxGeometry y="150" width="250" height="30" as="geometry" />
        </mxCell>
        <mxCell id="88DA4RzG58VflkBBN9f2-253" value="" style="shape=partialRectangle;overflow=hidden;connectable=0;fillColor=#f8cecc;top=0;left=0;bottom=0;right=0;strokeColor=#b85450;" vertex="1" parent="88DA4RzG58VflkBBN9f2-252">
          <mxGeometry width="30" height="30" as="geometry" />
        </mxCell>
        <mxCell id="88DA4RzG58VflkBBN9f2-254" value="organizationDetails(String) NOT NULL" style="shape=partialRectangle;overflow=hidden;connectable=0;fillColor=#f8cecc;top=0;left=0;bottom=0;right=0;align=left;spacingLeft=6;strokeColor=#b85450;" vertex="1" parent="88DA4RzG58VflkBBN9f2-252">
          <mxGeometry x="30" width="220" height="30" as="geometry" />
        </mxCell>
        <mxCell id="88DA4RzG58VflkBBN9f2-255" style="edgeStyle=orthogonalEdgeStyle;rounded=0;orthogonalLoop=1;jettySize=auto;html=1;entryX=1;entryY=0.5;entryDx=0;entryDy=0;startArrow=ERzeroToMany;startFill=1;endArrow=ERzeroToMany;endFill=1;strokeColor=#b85450;exitX=0;exitY=0.5;exitDx=0;exitDy=0;fillColor=#f8cecc;" edge="1" parent="1" source="88DA4RzG58VflkBBN9f2-233" target="88DA4RzG58VflkBBN9f2-240">
          <mxGeometry relative="1" as="geometry" />
        </mxCell>
        <mxCell id="88DA4RzG58VflkBBN9f2-256" value="&lt;&lt; moduleType&gt;&gt;" style="shape=table;startSize=30;container=1;collapsible=1;childLayout=tableLayout;fixedRows=1;rowLines=0;fontStyle=1;align=center;resizeLast=1;fillColor=#f8cecc;strokeColor=#b85450;" vertex="1" parent="1">
          <mxGeometry x="-351.03" y="-1300" width="150" height="210" as="geometry" />
        </mxCell>
        <mxCell id="88DA4RzG58VflkBBN9f2-257" value="" style="shape=partialRectangle;collapsible=0;dropTarget=0;pointerEvents=0;fillColor=#f8cecc;points=[[0,0.5],[1,0.5]];portConstraint=eastwest;top=0;left=0;right=0;bottom=1;strokeColor=#b85450;" vertex="1" parent="88DA4RzG58VflkBBN9f2-256">
          <mxGeometry y="30" width="150" height="30" as="geometry" />
        </mxCell>
        <mxCell id="88DA4RzG58VflkBBN9f2-258" value="" style="shape=partialRectangle;overflow=hidden;connectable=0;fillColor=#fff2cc;top=0;left=0;bottom=0;right=0;fontStyle=1;strokeColor=#d6b656;" vertex="1" parent="88DA4RzG58VflkBBN9f2-257">
          <mxGeometry width="30" height="30" as="geometry" />
        </mxCell>
        <mxCell id="88DA4RzG58VflkBBN9f2-259" value="INV" style="shape=partialRectangle;overflow=hidden;connectable=0;fillColor=#fff2cc;top=0;left=0;bottom=0;right=0;align=left;spacingLeft=6;fontStyle=5;strokeColor=#d6b656;" vertex="1" parent="88DA4RzG58VflkBBN9f2-257">
          <mxGeometry x="30" width="120" height="30" as="geometry" />
        </mxCell>
        <mxCell id="88DA4RzG58VflkBBN9f2-260" value="" style="shape=partialRectangle;collapsible=0;dropTarget=0;pointerEvents=0;fillColor=#f8cecc;points=[[0,0.5],[1,0.5]];portConstraint=eastwest;top=0;left=0;right=0;bottom=0;strokeColor=#b85450;" vertex="1" parent="88DA4RzG58VflkBBN9f2-256">
          <mxGeometry y="60" width="150" height="30" as="geometry" />
        </mxCell>
        <mxCell id="88DA4RzG58VflkBBN9f2-261" value="" style="shape=partialRectangle;overflow=hidden;connectable=0;fillColor=#fff2cc;top=0;left=0;bottom=0;right=0;strokeColor=#d6b656;" vertex="1" parent="88DA4RzG58VflkBBN9f2-260">
          <mxGeometry width="30" height="30" as="geometry" />
        </mxCell>
        <mxCell id="88DA4RzG58VflkBBN9f2-262" value="POS" style="shape=partialRectangle;overflow=hidden;connectable=0;fillColor=#fff2cc;top=0;left=0;bottom=0;right=0;align=left;spacingLeft=6;strokeColor=#d6b656;" vertex="1" parent="88DA4RzG58VflkBBN9f2-260">
          <mxGeometry x="30" width="120" height="30" as="geometry" />
        </mxCell>
        <mxCell id="88DA4RzG58VflkBBN9f2-263" value="" style="shape=partialRectangle;collapsible=0;dropTarget=0;pointerEvents=0;fillColor=#f8cecc;points=[[0,0.5],[1,0.5]];portConstraint=eastwest;top=0;left=0;right=0;bottom=0;strokeColor=#b85450;" vertex="1" parent="88DA4RzG58VflkBBN9f2-256">
          <mxGeometry y="90" width="150" height="30" as="geometry" />
        </mxCell>
        <mxCell id="88DA4RzG58VflkBBN9f2-264" value="" style="shape=partialRectangle;overflow=hidden;connectable=0;fillColor=#f8cecc;top=0;left=0;bottom=0;right=0;strokeColor=#b85450;" vertex="1" parent="88DA4RzG58VflkBBN9f2-263">
          <mxGeometry width="30" height="30" as="geometry" />
        </mxCell>
        <mxCell id="88DA4RzG58VflkBBN9f2-265" value="CRM" style="shape=partialRectangle;overflow=hidden;connectable=0;fillColor=#f8cecc;top=0;left=0;bottom=0;right=0;align=left;spacingLeft=6;strokeColor=#b85450;" vertex="1" parent="88DA4RzG58VflkBBN9f2-263">
          <mxGeometry x="30" width="120" height="30" as="geometry" />
        </mxCell>
        <mxCell id="88DA4RzG58VflkBBN9f2-266" value="" style="shape=partialRectangle;collapsible=0;dropTarget=0;pointerEvents=0;fillColor=#f8cecc;points=[[0,0.5],[1,0.5]];portConstraint=eastwest;top=0;left=0;right=0;bottom=0;strokeColor=#b85450;" vertex="1" parent="88DA4RzG58VflkBBN9f2-256">
          <mxGeometry y="120" width="150" height="30" as="geometry" />
        </mxCell>
        <mxCell id="88DA4RzG58VflkBBN9f2-267" value="" style="shape=partialRectangle;overflow=hidden;connectable=0;fillColor=#f8cecc;top=0;left=0;bottom=0;right=0;strokeColor=#b85450;" vertex="1" parent="88DA4RzG58VflkBBN9f2-266">
          <mxGeometry width="30" height="30" as="geometry" />
        </mxCell>
        <mxCell id="88DA4RzG58VflkBBN9f2-268" value="HRM" style="shape=partialRectangle;overflow=hidden;connectable=0;fillColor=#f8cecc;top=0;left=0;bottom=0;right=0;align=left;spacingLeft=6;strokeColor=#b85450;" vertex="1" parent="88DA4RzG58VflkBBN9f2-266">
          <mxGeometry x="30" width="120" height="30" as="geometry" />
        </mxCell>
        <mxCell id="88DA4RzG58VflkBBN9f2-275" value="" style="shape=partialRectangle;collapsible=0;dropTarget=0;pointerEvents=0;fillColor=#f8cecc;points=[[0,0.5],[1,0.5]];portConstraint=eastwest;top=0;left=0;right=0;bottom=0;strokeColor=#b85450;" vertex="1" parent="88DA4RzG58VflkBBN9f2-256">
          <mxGeometry y="150" width="150" height="30" as="geometry" />
        </mxCell>
        <mxCell id="88DA4RzG58VflkBBN9f2-276" value="" style="shape=partialRectangle;overflow=hidden;connectable=0;fillColor=#f8cecc;top=0;left=0;bottom=0;right=0;strokeColor=#b85450;" vertex="1" parent="88DA4RzG58VflkBBN9f2-275">
          <mxGeometry width="30" height="30" as="geometry" />
        </mxCell>
        <mxCell id="88DA4RzG58VflkBBN9f2-277" value="PRM" style="shape=partialRectangle;overflow=hidden;connectable=0;fillColor=#f8cecc;top=0;left=0;bottom=0;right=0;align=left;spacingLeft=6;strokeColor=#b85450;" vertex="1" parent="88DA4RzG58VflkBBN9f2-275">
          <mxGeometry x="30" width="120" height="30" as="geometry" />
        </mxCell>
        <mxCell id="88DA4RzG58VflkBBN9f2-278" value="" style="shape=partialRectangle;collapsible=0;dropTarget=0;pointerEvents=0;fillColor=#f8cecc;points=[[0,0.5],[1,0.5]];portConstraint=eastwest;top=0;left=0;right=0;bottom=0;strokeColor=#b85450;" vertex="1" parent="88DA4RzG58VflkBBN9f2-256">
          <mxGeometry y="180" width="150" height="30" as="geometry" />
        </mxCell>
        <mxCell id="88DA4RzG58VflkBBN9f2-279" value="" style="shape=partialRectangle;overflow=hidden;connectable=0;fillColor=#f8cecc;top=0;left=0;bottom=0;right=0;strokeColor=#b85450;" vertex="1" parent="88DA4RzG58VflkBBN9f2-278">
          <mxGeometry width="30" height="30" as="geometry" />
        </mxCell>
        <mxCell id="88DA4RzG58VflkBBN9f2-280" value="MRK" style="shape=partialRectangle;overflow=hidden;connectable=0;fillColor=#f8cecc;top=0;left=0;bottom=0;right=0;align=left;spacingLeft=6;strokeColor=#b85450;" vertex="1" parent="88DA4RzG58VflkBBN9f2-278">
          <mxGeometry x="30" width="120" height="30" as="geometry" />
        </mxCell>
        <mxCell id="88DA4RzG58VflkBBN9f2-281" value="javUser" style="shape=table;startSize=30;container=1;collapsible=1;childLayout=tableLayout;fixedRows=1;rowLines=0;fontStyle=1;align=center;resizeLast=1;fillColor=#f8cecc;strokeColor=#b85450;" vertex="1" parent="1">
          <mxGeometry x="-760" y="-860" width="250" height="150" as="geometry" />
        </mxCell>
        <mxCell id="88DA4RzG58VflkBBN9f2-282" value="" style="shape=partialRectangle;collapsible=0;dropTarget=0;pointerEvents=0;fillColor=#f8cecc;points=[[0,0.5],[1,0.5]];portConstraint=eastwest;top=0;left=0;right=0;bottom=1;strokeColor=#b85450;" vertex="1" parent="88DA4RzG58VflkBBN9f2-281">
          <mxGeometry y="30" width="250" height="30" as="geometry" />
        </mxCell>
        <mxCell id="88DA4RzG58VflkBBN9f2-283" value="PK" style="shape=partialRectangle;overflow=hidden;connectable=0;fillColor=#f8cecc;top=0;left=0;bottom=0;right=0;fontStyle=1;strokeColor=#b85450;" vertex="1" parent="88DA4RzG58VflkBBN9f2-282">
          <mxGeometry width="30" height="30" as="geometry" />
        </mxCell>
        <mxCell id="88DA4RzG58VflkBBN9f2-284" value="gneeferUserId String NOT NULL" style="shape=partialRectangle;overflow=hidden;connectable=0;fillColor=#f8cecc;top=0;left=0;bottom=0;right=0;align=left;spacingLeft=6;fontStyle=5;strokeColor=#b85450;" vertex="1" parent="88DA4RzG58VflkBBN9f2-282">
          <mxGeometry x="30" width="220" height="30" as="geometry" />
        </mxCell>
        <mxCell id="88DA4RzG58VflkBBN9f2-285" value="" style="shape=partialRectangle;collapsible=0;dropTarget=0;pointerEvents=0;fillColor=#f8cecc;points=[[0,0.5],[1,0.5]];portConstraint=eastwest;top=0;left=0;right=0;bottom=0;strokeColor=#b85450;" vertex="1" parent="88DA4RzG58VflkBBN9f2-281">
          <mxGeometry y="60" width="250" height="30" as="geometry" />
        </mxCell>
        <mxCell id="88DA4RzG58VflkBBN9f2-286" value="" style="shape=partialRectangle;overflow=hidden;connectable=0;fillColor=#f8cecc;top=0;left=0;bottom=0;right=0;strokeColor=#b85450;" vertex="1" parent="88DA4RzG58VflkBBN9f2-285">
          <mxGeometry width="30" height="30" as="geometry" />
        </mxCell>
        <mxCell id="88DA4RzG58VflkBBN9f2-287" value="javUserName (String) NOT NULL" style="shape=partialRectangle;overflow=hidden;connectable=0;fillColor=#f8cecc;top=0;left=0;bottom=0;right=0;align=left;spacingLeft=6;strokeColor=#b85450;" vertex="1" parent="88DA4RzG58VflkBBN9f2-285">
          <mxGeometry x="30" width="220" height="30" as="geometry" />
        </mxCell>
        <mxCell id="88DA4RzG58VflkBBN9f2-288" value="" style="shape=partialRectangle;collapsible=0;dropTarget=0;pointerEvents=0;fillColor=#f8cecc;points=[[0,0.5],[1,0.5]];portConstraint=eastwest;top=0;left=0;right=0;bottom=0;strokeColor=#b85450;" vertex="1" parent="88DA4RzG58VflkBBN9f2-281">
          <mxGeometry y="90" width="250" height="30" as="geometry" />
        </mxCell>
        <mxCell id="88DA4RzG58VflkBBN9f2-289" value="" style="shape=partialRectangle;overflow=hidden;connectable=0;fillColor=#f8cecc;top=0;left=0;bottom=0;right=0;strokeColor=#b85450;" vertex="1" parent="88DA4RzG58VflkBBN9f2-288">
          <mxGeometry width="30" height="30" as="geometry" />
        </mxCell>
        <mxCell id="88DA4RzG58VflkBBN9f2-290" value="password (String) NOT NULL" style="shape=partialRectangle;overflow=hidden;connectable=0;fillColor=#f8cecc;top=0;left=0;bottom=0;right=0;align=left;spacingLeft=6;strokeColor=#b85450;" vertex="1" parent="88DA4RzG58VflkBBN9f2-288">
          <mxGeometry x="30" width="220" height="30" as="geometry" />
        </mxCell>
        <mxCell id="88DA4RzG58VflkBBN9f2-291" value="" style="shape=partialRectangle;collapsible=0;dropTarget=0;pointerEvents=0;fillColor=#f8cecc;points=[[0,0.5],[1,0.5]];portConstraint=eastwest;top=0;left=0;right=0;bottom=0;strokeColor=#b85450;" vertex="1" parent="88DA4RzG58VflkBBN9f2-281">
          <mxGeometry y="120" width="250" height="30" as="geometry" />
        </mxCell>
        <mxCell id="88DA4RzG58VflkBBN9f2-292" value="" style="shape=partialRectangle;overflow=hidden;connectable=0;fillColor=#f8cecc;top=0;left=0;bottom=0;right=0;strokeColor=#b85450;" vertex="1" parent="88DA4RzG58VflkBBN9f2-291">
          <mxGeometry width="30" height="30" as="geometry" />
        </mxCell>
        <mxCell id="88DA4RzG58VflkBBN9f2-293" value="contactNumber(String) NOT NULL" style="shape=partialRectangle;overflow=hidden;connectable=0;fillColor=#f8cecc;top=0;left=0;bottom=0;right=0;align=left;spacingLeft=6;strokeColor=#b85450;" vertex="1" parent="88DA4RzG58VflkBBN9f2-291">
          <mxGeometry x="30" width="220" height="30" as="geometry" />
        </mxCell>
        <mxCell id="88DA4RzG58VflkBBN9f2-294" style="edgeStyle=orthogonalEdgeStyle;rounded=0;orthogonalLoop=1;jettySize=auto;html=1;entryX=1;entryY=0.5;entryDx=0;entryDy=0;startArrow=ERzeroToMany;startFill=1;endArrow=ERone;endFill=0;strokeColor=#b85450;fillColor=#f8cecc;" edge="1" parent="1" source="88DA4RzG58VflkBBN9f2-243" target="88DA4RzG58VflkBBN9f2-282">
          <mxGeometry relative="1" as="geometry">
            <mxPoint x="-1030" y="-1190" as="sourcePoint" />
            <mxPoint x="-1120" y="-1030" as="targetPoint" />
          </mxGeometry>
        </mxCell>
        <mxCell id="88DA4RzG58VflkBBN9f2-295" style="edgeStyle=orthogonalEdgeStyle;rounded=0;orthogonalLoop=1;jettySize=auto;html=1;entryX=0;entryY=0.5;entryDx=0;entryDy=0;startArrow=ERone;startFill=0;endArrow=ERzeroToMany;endFill=1;strokeColor=#b85450;exitX=1;exitY=0.5;exitDx=0;exitDy=0;fillColor=#f8cecc;" edge="1" parent="1" source="88DA4RzG58VflkBBN9f2-246" target="88DA4RzG58VflkBBN9f2-202">
          <mxGeometry relative="1" as="geometry">
            <mxPoint x="-400" y="-1220" as="sourcePoint" />
            <mxPoint x="-61" y="-981.1500000000001" as="targetPoint" />
          </mxGeometry>
        </mxCell>
        <mxCell id="88DA4RzG58VflkBBN9f2-296" value="&lt;font style=&quot;font-size: 87px&quot; color=&quot;#ffd966&quot;&gt;&lt;b&gt;&lt;font style=&quot;font-size: 87px&quot;&gt;GNEEFER SERVER DESIGN&lt;/font&gt;&amp;nbsp;-ER&lt;/b&gt;&lt;/font&gt;" style="rounded=0;whiteSpace=wrap;html=1;align=center;fillColor=#E6FFCC;" vertex="1" parent="1">
          <mxGeometry x="-700" y="-1630" width="1970" height="100" as="geometry" />
        </mxCell>
      </root>
    </mxGraphModel>
  </diagram>
</mxfile>
